<?xml version="1.0" standalone="no"?>
<!DOCTYPE svg PUBLIC "-//W3C//DTD SVG 20010904//EN"
 "http://www.w3.org/TR/2001/REC-SVG-20010904/DTD/svg10.dtd">
<svg version="1.0" xmlns="http://www.w3.org/2000/svg"
 width="1920.000000pt" height="1920.000000pt" viewBox="0 0 1920.000000 1920.000000"
 preserveAspectRatio="xMidYMid meet">

<g transform="translate(0.000000,1920.000000) scale(0.100000,-0.100000)"
fill="#000000" stroke="none">
<path d="M9567 17904 c-4 -4 -7 -23 -7 -41 l0 -34 -31 21 c-16 12 -31 21 -33
19 -24 -32 -36 -58 -36 -80 0 -15 -7 -32 -15 -39 -8 -7 -15 -24 -15 -37 0 -14
-8 -37 -19 -51 -30 -44 -91 -175 -91 -198 0 -12 -6 -27 -14 -33 -8 -7 -26 -38
-41 -69 -109 -227 -505 -1011 -582 -1150 -13 -24 -53 -100 -89 -170 -37 -70
-72 -136 -79 -147 -7 -11 -34 -60 -60 -110 -26 -49 -69 -128 -95 -175 -26 -47
-64 -114 -83 -150 -101 -186 -286 -514 -359 -636 -26 -45 -48 -85 -48 -89 0
-4 -8 -19 -19 -33 -35 -51 -213 -375 -323 -592 -40 -78 -66 -141 -63 -151 3
-10 0 -21 -8 -26 -14 -9 -77 -136 -77 -157 0 -6 -6 -21 -14 -31 -7 -10 -11
-27 -8 -37 3 -11 -3 -24 -13 -32 -10 -7 -19 -31 -22 -62 -5 -46 -4 -48 11 -29
15 19 15 19 16 -17 0 -42 -14 -56 -37 -37 -13 11 -17 10 -29 -6 -16 -21 -13
-41 5 -37 15 3 60 -48 61 -69 0 -36 -51 -45 -87 -17 -12 10 -33 3 -33 -11 0
-4 20 -18 45 -30 44 -22 56 -43 34 -57 -6 -4 -8 -20 -4 -40 5 -28 3 -34 -11
-34 -13 0 -15 -6 -10 -31 3 -17 6 -38 6 -45 0 -8 5 -14 10 -14 6 0 10 6 10 14
0 24 22 30 37 10 12 -16 15 -17 23 -4 16 24 11 40 -10 40 -13 0 -20 7 -20 20
0 23 10 26 28 8 12 -12 15 -10 86 71 19 21 19 21 -3 45 l-23 24 31 7 c22 5 31
12 31 26 0 11 11 37 25 59 14 22 25 45 25 52 0 11 61 144 101 220 5 10 9 26 9
37 0 10 6 24 13 30 8 6 24 32 37 58 65 137 141 278 151 281 5 2 9 10 9 17 0
13 63 138 80 160 4 6 20 33 36 60 42 77 65 117 85 150 10 17 26 46 35 65 10
19 30 53 44 75 15 22 44 72 64 110 21 39 43 77 50 85 7 8 23 38 36 65 13 28
33 64 45 80 11 17 32 53 45 80 13 28 35 68 49 90 13 22 42 74 64 115 56 107
88 163 97 175 5 6 31 53 58 105 27 52 64 122 82 155 48 89 152 287 164 312 6
13 14 23 19 23 4 0 7 8 7 18 0 10 4 22 9 28 11 11 308 601 400 794 60 127 123
259 176 375 13 28 38 82 56 120 33 69 33 73 35 217 l1 148 42 45 c45 49 54 73
21 55 -11 -6 -26 -20 -33 -30 -18 -31 -26 -24 -29 27 -3 44 -15 62 -31 47z
m-2173 -4235 c-3 -5 -10 -7 -15 -3 -5 3 -7 10 -3 15 3 5 10 7 15 3 5 -3 7 -10
3 -15z m-14 -128 c0 -6 -4 -13 -10 -16 -5 -3 -10 1 -10 9 0 9 5 16 10 16 6 0
10 -4 10 -9z m40 -161 c0 -5 -4 -10 -9 -10 -6 0 -13 5 -16 10 -3 6 1 10 9 10
9 0 16 -4 16 -10z"/>
<path d="M10550 15500 c0 -5 5 -10 10 -10 6 0 10 5 10 10 0 6 -4 10 -10 10 -5
0 -10 -4 -10 -10z"/>
<path d="M10570 15461 c0 -6 5 -13 10 -16 6 -3 10 1 10 9 0 9 -4 16 -10 16 -5
0 -10 -4 -10 -9z"/>
<path d="M10590 15421 c0 -6 5 -13 10 -16 6 -3 10 1 10 9 0 9 -4 16 -10 16 -5
0 -10 -4 -10 -9z"/>
<path d="M10621 15374 c0 -11 3 -14 6 -6 3 7 2 16 -1 19 -3 4 -6 -2 -5 -13z"/>
<path d="M10640 15335 c0 -8 4 -15 10 -15 5 0 7 7 4 15 -4 8 -8 15 -10 15 -2
0 -4 -7 -4 -15z"/>
<path d="M10660 15300 c0 -5 5 -10 10 -10 6 0 10 5 10 10 0 6 -4 10 -10 10 -5
0 -10 -4 -10 -10z"/>
<path d="M10685 15250 c3 -5 8 -10 11 -10 2 0 4 5 4 10 0 6 -5 10 -11 10 -5 0
-7 -4 -4 -10z"/>
<path d="M10775 15090 c3 -5 8 -10 11 -10 2 0 4 5 4 10 0 6 -5 10 -11 10 -5 0
-7 -4 -4 -10z"/>
<path d="M7980 14330 c0 -5 5 -10 11 -10 5 0 7 5 4 10 -3 6 -8 10 -11 10 -2 0
-4 -4 -4 -10z"/>
<path d="M7890 14170 c0 -5 5 -10 11 -10 5 0 7 5 4 10 -3 6 -8 10 -11 10 -2 0
-4 -4 -4 -10z"/>
<path d="M7825 14040 c-3 -5 -1 -10 4 -10 6 0 11 5 11 10 0 6 -2 10 -4 10 -3
0 -8 -4 -11 -10z"/>
<path d="M11455 13850 c3 -5 8 -10 11 -10 2 0 4 5 4 10 0 6 -5 10 -11 10 -5 0
-7 -4 -4 -10z"/>
<path d="M11470 13810 c0 -5 5 -10 10 -10 6 0 10 5 10 10 0 6 -4 10 -10 10 -5
0 -10 -4 -10 -10z"/>
<path d="M11540 13660 c0 -5 5 -10 10 -10 6 0 10 5 10 10 0 6 -4 10 -10 10 -5
0 -10 -4 -10 -10z"/>
<path d="M11560 13611 c0 -6 5 -13 10 -16 6 -3 10 1 10 9 0 9 -4 16 -10 16 -5
0 -10 -4 -10 -9z"/>
<path d="M11800 13400 c0 -5 5 -10 10 -10 6 0 10 5 10 10 0 6 -4 10 -10 10 -5
0 -10 -4 -10 -10z"/>
<path d="M11770 13379 c0 -5 5 -7 10 -4 6 3 10 8 10 11 0 2 -4 4 -10 4 -5 0
-10 -5 -10 -11z"/>
<path d="M11850 13260 c0 -13 -5 -18 -15 -14 -11 4 -15 0 -15 -16 0 -19 3 -20
15 -10 19 16 35 4 35 -25 0 -18 -4 -23 -15 -19 -12 5 -15 -2 -15 -30 0 -37
-15 -50 -23 -18 -4 16 -5 16 -12 -2 -5 -11 -3 -26 3 -37 7 -10 12 -32 12 -48
0 -17 5 -33 10 -36 6 -3 10 -23 10 -44 0 -20 4 -41 9 -46 5 -6 11 -30 14 -55
3 -25 14 -88 24 -140 24 -125 25 -574 2 -687 -8 -39 -18 -75 -22 -79 -4 -4 -7
-24 -7 -45 0 -21 -4 -41 -10 -44 -5 -3 -10 -16 -10 -27 0 -26 -17 -83 -36
-120 -8 -14 -14 -36 -14 -47 0 -12 -4 -21 -10 -21 -5 0 -10 -11 -10 -25 0 -14
-4 -34 -10 -45 -5 -11 -14 -29 -20 -40 -5 -11 -10 -28 -10 -39 0 -10 -7 -24
-15 -31 -8 -7 -15 -21 -15 -31 0 -10 -4 -21 -10 -24 -5 -3 -10 -17 -10 -31 0
-13 -4 -24 -10 -24 -5 0 -10 -6 -10 -14 0 -8 -15 -45 -34 -82 -19 -38 -41 -85
-50 -104 -9 -19 -21 -42 -25 -50 -5 -8 -45 -89 -90 -180 -74 -153 -129 -257
-185 -355 -28 -48 -56 -98 -151 -270 -18 -33 -47 -85 -64 -115 -50 -88 -408
-814 -456 -925 -10 -22 -30 -67 -45 -100 -16 -33 -36 -82 -45 -108 -10 -26
-22 -50 -26 -53 -5 -3 -9 -14 -9 -25 0 -10 -4 -19 -10 -19 -5 0 -10 -11 -10
-24 0 -14 -4 -28 -10 -31 -5 -3 -10 -14 -10 -24 0 -10 -7 -24 -15 -31 -9 -7
-13 -21 -10 -30 3 -9 -1 -23 -10 -30 -8 -7 -15 -21 -15 -31 0 -10 -4 -21 -10
-24 -5 -3 -10 -17 -10 -30 0 -13 -4 -27 -10 -30 -5 -3 -10 -19 -10 -34 0 -16
-7 -34 -15 -41 -8 -7 -15 -23 -15 -36 0 -12 -4 -26 -10 -29 -5 -3 -10 -15 -10
-26 0 -10 -4 -27 -9 -37 -8 -14 -48 -140 -93 -292 -6 -19 -14 -44 -19 -55 -4
-11 -10 -31 -13 -45 -13 -64 -32 -129 -39 -136 -4 -4 -7 -22 -7 -40 0 -18 -4
-36 -10 -39 -5 -3 -10 -21 -10 -39 0 -18 -7 -41 -15 -52 -8 -10 -15 -38 -15
-61 0 -23 -4 -45 -10 -48 -5 -3 -10 -28 -10 -55 0 -27 -4 -52 -10 -55 -5 -3
-10 -31 -10 -61 0 -37 -4 -56 -14 -60 -10 -4 -12 -18 -8 -49 5 -49 -3 -95 -18
-95 -13 0 -13 127 0 135 6 3 10 30 10 60 0 32 5 57 13 62 7 5 12 30 13 57 0
29 6 52 12 54 7 2 12 23 12 47 0 24 5 47 10 50 6 3 10 26 10 50 0 24 5 47 10
50 6 3 10 21 10 39 0 18 7 41 15 52 8 10 15 33 15 51 0 17 5 35 10 38 6 3 10
21 10 40 0 19 5 37 10 40 6 3 10 19 10 35 0 16 5 32 10 35 6 3 10 18 10 33 0
15 7 38 16 50 8 12 13 26 10 30 -3 5 2 21 10 36 7 16 14 39 14 52 0 12 5 26
10 29 6 3 10 17 10 30 0 13 5 27 10 30 6 3 10 15 10 26 0 10 4 27 9 37 5 9 16
40 25 67 22 73 41 124 49 131 4 4 7 18 7 31 0 12 5 23 10 23 6 0 10 14 10 30
0 17 5 30 10 30 6 0 10 7 10 16 0 9 6 28 14 42 13 26 26 56 45 105 17 44 33
82 42 97 5 8 12 22 15 30 3 8 10 25 15 38 5 12 13 32 18 45 5 12 20 46 35 75
14 30 26 60 26 68 0 8 5 14 10 14 6 0 10 7 10 15 0 8 4 23 9 33 5 9 25 51 44
92 42 90 85 179 96 200 25 45 51 104 51 116 0 8 5 14 10 14 6 0 10 9 10 19 0
11 4 22 9 26 13 7 41 64 41 82 0 7 5 13 10 13 6 0 10 9 10 20 0 11 5 20 10 20
6 0 10 8 10 18 0 10 5 23 11 29 6 6 9 17 7 25 -3 7 -12 -3 -22 -24 -10 -20
-29 -49 -42 -63 -13 -14 -24 -32 -24 -40 0 -9 -6 -12 -16 -8 -14 5 -16 1 -12
-20 4 -21 1 -27 -13 -27 -12 0 -21 -10 -25 -25 -4 -18 -13 -25 -30 -25 -21 0
-24 -5 -24 -35 0 -27 -4 -35 -18 -35 -9 0 -26 -11 -36 -25 -10 -13 -23 -22
-28 -19 -4 3 -7 0 -6 -8 2 -7 -7 -14 -20 -16 -17 -3 -21 -8 -17 -23 5 -15 2
-19 -14 -19 -12 0 -21 -4 -21 -10 0 -5 -9 -10 -20 -10 -14 0 -20 -7 -20 -21 0
-19 -21 -49 -35 -49 -8 0 -35 -27 -35 -35 0 -15 -51 -55 -70 -55 -11 0 -20 -7
-20 -15 0 -8 -4 -15 -10 -15 -5 0 -10 -7 -10 -16 0 -22 -25 -44 -49 -44 -16 0
-21 -6 -21 -25 0 -14 -4 -25 -10 -25 -5 0 -10 -6 -10 -14 0 -8 -12 -17 -26
-20 -17 -5 -24 -12 -20 -21 4 -11 -2 -15 -19 -15 -16 0 -25 -6 -25 -16 0 -15
-23 -44 -35 -44 -3 0 -17 -11 -31 -25 -14 -14 -30 -25 -35 -25 -16 0 -39 -27
-39 -44 0 -9 -4 -16 -10 -16 -5 0 -10 -6 -10 -13 0 -8 -11 -20 -25 -27 -14 -7
-25 -17 -25 -22 0 -4 -9 -8 -20 -8 -11 0 -20 -7 -20 -15 0 -8 -4 -15 -9 -15
-5 0 -13 -9 -16 -20 -3 -11 -13 -20 -21 -20 -17 0 -64 -44 -64 -60 0 -5 -7
-10 -15 -10 -8 0 -15 -9 -15 -20 0 -11 -4 -20 -10 -20 -5 0 -10 -7 -10 -15 0
-8 -9 -15 -20 -15 -11 0 -20 -4 -20 -9 0 -13 -56 -71 -70 -71 -6 0 -8 -4 -5
-10 3 -5 1 -10 -4 -10 -6 0 -11 -7 -11 -15 0 -8 -7 -15 -15 -15 -8 0 -15 8
-15 18 0 10 -9 24 -20 32 -11 8 -20 20 -20 27 0 7 -7 13 -15 13 -8 0 -15 5
-15 10 0 6 -9 10 -20 10 -11 0 -20 5 -20 10 0 6 -7 10 -15 10 -8 0 -15 7 -15
15 0 8 -4 15 -9 15 -5 0 -14 14 -21 30 -7 17 -18 30 -25 30 -7 0 -21 11 -31
25 -10 14 -24 25 -31 25 -7 0 -13 9 -13 20 0 15 -7 20 -25 20 -16 0 -23 4 -19
13 6 17 -29 57 -50 57 -9 0 -16 7 -16 15 0 8 -6 15 -14 15 -8 0 -18 9 -21 20
-3 11 -13 20 -21 20 -8 0 -14 9 -14 19 0 11 -9 23 -20 26 -11 3 -20 15 -20 26
0 21 -26 26 -33 7 -2 -8 -8 -9 -13 -4 -5 5 -4 11 4 13 22 8 14 35 -8 28 -16
-5 -20 -2 -20 19 0 20 -5 26 -21 26 -21 0 -49 21 -49 37 0 5 -9 15 -20 23 -11
8 -20 22 -20 32 0 12 -8 18 -21 18 -22 0 -49 22 -49 39 0 6 -5 11 -11 11 -16
0 -39 26 -39 44 0 10 -9 16 -25 16 -15 0 -29 8 -36 23 -7 12 -20 29 -31 38
-10 9 -18 21 -18 28 0 6 -4 11 -10 11 -5 0 -10 6 -10 14 0 8 -10 18 -21 21
-29 10 -139 120 -139 140 0 16 -42 65 -57 65 -16 1 -53 39 -53 54 0 10 -8 16
-21 16 -22 0 -49 22 -49 39 0 6 -4 11 -9 11 -5 0 -13 9 -16 20 -3 11 -13 20
-21 20 -17 0 -44 23 -44 38 0 15 -68 88 -75 81 -3 -4 -1 -17 4 -31 6 -15 5
-31 -1 -42 -12 -21 -1 -36 12 -16 14 23 24 3 12 -25 -6 -13 -7 -27 -2 -30 4
-3 10 1 13 7 2 7 8 10 12 6 5 -5 3 -19 -3 -33 -7 -15 -8 -27 -2 -30 6 -4 10 1
10 9 0 26 17 18 33 -16 10 -21 12 -37 6 -42 -12 -13 -12 -46 1 -46 6 0 10 10
10 23 1 22 1 22 15 -3 17 -29 19 -44 6 -35 -18 11 -24 -18 -7 -31 10 -7 15
-17 12 -22 -3 -5 1 -15 9 -22 8 -7 15 -18 15 -25 0 -7 8 -30 19 -52 10 -21 29
-60 41 -88 33 -74 71 -147 81 -155 4 -3 9 -14 11 -25 2 -11 11 -19 21 -19 16
2 16 0 0 -26 -15 -27 -15 -29 8 -58 13 -17 29 -31 35 -31 7 -1 9 -12 6 -28 -4
-21 -2 -25 12 -20 13 5 15 2 10 -18 -5 -21 -3 -25 15 -25 20 0 20 -2 7 -23
-13 -19 -13 -25 -1 -47 8 -14 21 -40 30 -57 8 -18 23 -33 32 -33 14 0 14 -2
-2 -20 -17 -19 -17 -21 7 -57 14 -21 28 -55 31 -77 4 -21 13 -46 22 -56 8 -9
15 -28 15 -41 0 -13 11 -41 25 -61 14 -21 22 -44 19 -53 -4 -9 -2 -26 4 -38 6
-12 13 -31 15 -42 14 -56 46 -127 62 -139 18 -13 18 -15 2 -40 -10 -14 -30
-29 -45 -32 -15 -4 -33 -12 -41 -18 -10 -8 -18 -5 -32 13 -11 13 -19 31 -19
42 0 10 -4 21 -10 24 -5 3 -10 19 -10 35 0 16 -4 31 -9 34 -4 3 -14 26 -21 51
-17 61 -31 71 -74 51 -58 -28 -60 -34 -26 -127 52 -143 117 -345 160 -498 23
-80 46 -154 51 -163 5 -10 9 -28 9 -40 1 -13 7 -34 15 -48 8 -14 14 -35 15
-47 0 -12 8 -38 17 -58 16 -33 25 -38 76 -38 15 0 22 -9 15 -21 -2 -2 4 -12
13 -22 20 -25 69 -236 104 -451 8 -48 10 -50 31 -28 9 8 26 15 40 15 22 0 24
4 26 58 1 31 1 66 0 77 -1 11 -4 54 -6 95 -3 41 -10 89 -17 106 -7 17 -9 40
-5 50 7 19 8 19 18 0 10 -18 16 -49 38 -211 5 -38 12 -88 15 -110 25 -183 35
-315 36 -460 1 -186 -5 -215 -56 -241 -36 -18 -41 -18 -75 8 -25 18 -30 29
-30 64 0 24 -5 46 -10 49 -8 5 -7 11 1 21 6 8 10 16 8 17 -2 1 -30 26 -61 55
-55 51 -58 52 -116 52 -59 0 -60 -1 -126 -61 -63 -58 -79 -82 -104 -157 -9
-27 -8 -34 4 -39 25 -10 15 -23 -18 -23 -18 0 -42 7 -52 15 -19 15 -19 15 5
42 13 15 26 30 29 33 3 3 12 14 20 25 13 17 11 16 -17 -3 -18 -13 -35 -27 -38
-32 -14 -22 -43 -8 -66 33 -21 37 -25 59 -31 192 -19 365 -19 395 -9 395 6 0
11 -10 12 -22 1 -13 5 -68 10 -123 6 -55 12 -164 15 -242 5 -120 8 -144 24
-158 16 -15 22 -15 62 -2 34 12 48 23 66 57 16 29 19 45 12 50 -6 4 -15 65
-21 141 -5 74 -14 156 -19 182 -6 26 -10 65 -10 87 0 21 -4 60 -9 87 -6 26
-17 93 -26 148 -9 55 -21 123 -26 150 -5 28 -14 73 -19 100 -5 28 -19 91 -31
140 -11 50 -25 108 -29 130 -18 82 -46 189 -58 223 -5 15 -15 47 -22 72 -32
115 -60 177 -60 132 0 -12 -6 -22 -14 -22 -18 0 -28 -40 -14 -57 12 -15 3 -47
-12 -38 -5 3 -10 17 -10 31 0 13 -4 24 -10 24 -5 0 -10 -11 -10 -24 0 -14 5
-28 10 -31 6 -3 10 -24 10 -45 0 -21 5 -42 10 -45 6 -3 10 -23 10 -45 0 -26 5
-40 16 -44 13 -5 15 -15 11 -41 -3 -19 -1 -37 4 -40 5 -4 9 -26 9 -50 0 -30 5
-47 16 -53 12 -7 15 -17 10 -36 -10 -40 -20 -32 -40 32 -10 31 -25 74 -33 96
-7 21 -11 41 -8 44 3 3 -2 16 -11 30 -10 15 -14 35 -10 54 4 20 1 30 -9 34 -9
4 -15 19 -15 39 0 19 -4 37 -10 40 -5 3 -10 21 -10 40 0 20 -6 35 -15 39 -10
4 -13 14 -9 34 4 22 2 31 -11 36 -13 4 -15 13 -11 31 5 18 2 27 -9 31 -9 4
-15 19 -15 40 0 19 -4 34 -10 34 -5 0 -10 13 -10 29 0 16 -7 34 -15 41 -9 7
-13 21 -10 31 4 12 1 21 -10 25 -10 4 -13 13 -10 25 4 12 1 21 -9 25 -9 3 -16
17 -16 30 0 13 -4 33 -10 44 -5 11 -14 29 -20 40 -5 11 -10 26 -10 34 0 7 -6
19 -14 26 -8 6 -12 18 -9 27 4 9 -1 19 -10 25 -10 5 -17 18 -17 28 0 11 -4 20
-10 20 -5 0 -10 9 -10 19 0 11 -4 23 -10 26 -5 3 -10 15 -10 26 0 10 -4 19 -9
19 -5 0 -12 11 -15 25 -4 14 -11 25 -16 25 -6 0 -10 9 -10 20 0 11 -4 20 -10
20 -5 0 -10 9 -10 19 0 11 -4 23 -10 26 -5 3 -10 15 -10 26 0 10 -4 19 -10 19
-5 0 -10 4 -10 10 0 5 -16 34 -35 64 -19 30 -35 59 -35 64 0 5 -11 19 -25 32
-14 13 -25 31 -25 40 0 8 -9 22 -20 30 -11 8 -20 22 -20 31 0 9 -16 31 -35 48
-19 17 -35 39 -35 50 0 22 -55 81 -76 81 -8 0 -14 9 -14 20 0 35 -21 67 -56
83 -23 12 -34 23 -34 39 0 33 -41 87 -76 98 -26 9 -33 17 -38 48 -3 23 -20 55
-43 81 l-37 44 34 28 c39 33 39 33 64 14 16 -12 17 -17 6 -30 -14 -17 0 -21
16 -5 8 8 15 6 24 -5 7 -8 27 -15 44 -15 28 0 31 -3 32 -34 1 -42 40 -94 77
-102 16 -4 27 -13 27 -23 0 -22 50 -99 69 -106 14 -6 92 43 98 62 2 5 -19 33
-47 63 -27 30 -50 57 -50 61 0 17 -94 109 -112 109 -15 0 -18 5 -13 19 4 15
-22 51 -113 153 -164 184 -398 409 -417 402 -8 -3 -24 -21 -36 -40 -11 -19
-26 -34 -33 -34 -19 0 -49 37 -37 45 18 10 12 51 -9 70 -11 10 -20 23 -20 29
0 6 12 -2 26 -18 14 -15 28 -25 31 -22 4 4 -5 18 -19 33 -23 22 -29 24 -43 13
-21 -17 -29 -7 -15 19 13 26 -1 27 -23 3 -19 -21 -22 -42 -7 -42 6 0 10 -5 10
-12 0 -9 -3 -9 -12 0 -25 25 -56 13 -88 -32 -16 -25 -30 -54 -30 -66 0 -19 -4
-21 -30 -15 -16 4 -30 3 -29 -2 0 -4 51 -53 112 -108 180 -163 279 -259 268
-263 -14 -5 -14 -39 -1 -44 5 -1 15 -38 22 -80 7 -43 17 -78 23 -78 9 0 56
-212 55 -248 0 -7 7 -20 15 -28 14 -14 20 -41 16 -71 -1 -7 3 -13 9 -13 5 0
10 -12 10 -27 0 -16 7 -47 15 -70 8 -23 12 -49 9 -57 -3 -9 0 -22 8 -29 7 -8
20 -55 27 -106 8 -50 18 -91 22 -91 5 0 9 -15 9 -34 0 -19 4 -36 10 -38 5 -1
11 -31 13 -66 2 -34 7 -65 10 -69 4 -3 7 -17 7 -30 0 -14 5 -34 12 -46 7 -12
13 -49 15 -81 1 -33 6 -62 11 -65 13 -9 22 -54 34 -166 6 -55 15 -103 21 -106
5 -4 7 -21 4 -38 -4 -19 -2 -31 4 -31 6 0 8 -7 5 -17 -4 -9 -2 -19 4 -23 5 -3
10 -35 11 -71 1 -35 5 -66 9 -69 7 -5 20 -172 23 -302 1 -31 5 -60 10 -64 12
-13 8 -42 -10 -59 -12 -12 -13 -19 -5 -24 14 -9 23 -83 12 -101 -4 -7 -14 -9
-21 -6 -8 4 -6 1 4 -7 10 -9 19 -19 20 -24 1 -9 21 -32 125 -147 40 -45 84
-99 97 -121 25 -43 147 -350 143 -362 -1 -5 3 -17 9 -29 15 -25 7 -36 -38 -52
-50 -17 -69 -15 -69 7 0 10 -8 29 -18 42 -10 13 -21 32 -25 42 -3 9 -14 17
-24 17 -18 0 -83 -40 -83 -52 0 -21 54 -165 67 -180 11 -12 31 -18 58 -18 40
0 42 -2 66 -52 13 -29 29 -52 34 -52 6 1 24 5 41 8 30 7 32 6 43 -38 12 -49
15 -129 4 -139 -3 -4 -21 3 -40 14 -19 12 -36 19 -39 17 -5 -6 45 -58 56 -58
17 0 28 -56 15 -73 -15 -21 -48 -22 -65 -2 -7 8 -19 15 -26 15 -10 0 -14 13
-14 43 0 24 -5 48 -12 55 -8 8 -8 15 1 26 10 12 7 20 -21 46 -75 71 -146 84
-233 41 -21 -10 -46 -16 -54 -13 -9 3 -12 1 -7 -6 5 -8 0 -12 -14 -12 -11 0
-23 -7 -26 -15 -4 -9 -20 -15 -43 -16 -21 -1 -28 -3 -16 -6 30 -7 43 -23 18
-23 -16 0 -20 -5 -16 -19 4 -16 11 -19 41 -14 21 2 50 9 66 14 16 5 59 9 96 9
64 0 68 -1 79 -27 19 -49 18 -77 -4 -81 -46 -9 -32 -20 34 -27 39 -4 73 -11
76 -15 7 -12 -88 -23 -125 -15 -16 4 -34 13 -38 22 -14 23 -55 7 -47 -18 9
-27 -21 -36 -45 -14 -22 20 -62 13 -42 -7 7 -7 12 -16 12 -20 0 -12 -38 -10
-45 2 -3 6 -13 10 -21 10 -11 0 -13 -6 -9 -20 5 -16 2 -20 -14 -20 -12 0 -21
5 -21 10 0 6 -5 10 -11 10 -6 0 -8 -9 -4 -20 5 -16 2 -20 -14 -20 -12 0 -21 5
-21 10 0 6 -5 10 -10 10 -6 0 -8 -11 -4 -25 5 -19 2 -25 -10 -25 -9 0 -16 5
-16 10 0 6 -5 10 -11 10 -6 0 -8 -8 -5 -18 4 -12 -3 -21 -27 -31 -37 -17 -218
-190 -238 -229 -8 -15 -18 -30 -24 -34 -5 -4 -6 -11 -1 -15 5 -4 11 -2 13 5 3
6 14 12 25 12 12 0 26 7 33 17 7 9 17 13 23 9 19 -11 14 -26 -7 -26 -11 0 -23
-4 -26 -10 -3 -5 -14 -10 -25 -10 -10 0 -21 -7 -24 -15 -4 -13 -10 -14 -26 -5
-21 11 -28 40 -10 40 6 0 10 6 10 14 0 8 19 36 43 62 71 81 76 91 28 57 l-44
-32 -34 29 c-18 17 -38 30 -43 30 -21 0 -8 37 30 85 85 107 84 106 23 109 -40
3 -106 -24 -133 -53 -40 -42 -95 -128 -116 -179 -28 -67 -32 -117 -9 -108 16
6 58 -28 68 -56 3 -9 24 -22 45 -29 34 -10 43 -9 67 7 28 18 28 18 17 -1 -5
-11 -20 -29 -31 -39 -12 -11 -21 -29 -21 -40 -1 -25 -16 -45 -52 -68 -17 -11
-25 -24 -22 -35 4 -12 -5 -24 -25 -36 -30 -18 -41 -37 -21 -37 5 0 -4 -25 -21
-56 -64 -119 -13 -115 252 20 282 143 459 207 639 231 48 7 61 14 115 64 82
77 161 141 174 141 15 0 14 -33 -1 -48 -7 -7 -20 -12 -30 -12 -10 0 -18 -4
-18 -10 0 -5 16 -10 35 -10 l35 0 0 -202 c0 -218 0 -216 -65 -418 -20 -63 -39
-128 -42 -143 -7 -39 -28 -44 -64 -18 -17 13 -36 21 -42 18 -7 -3 -21 -28 -32
-57 -26 -69 -35 -74 -80 -56 -43 18 -55 14 -55 -20 0 -14 4 -22 10 -19 13 8
60 -24 60 -41 0 -16 -12 -18 -25 -5 -6 5 -24 12 -40 15 -33 7 -23 21 -123
-161 -66 -119 -205 -323 -221 -323 -11 0 -11 -3 -2 -14 19 -23 9 -70 -16 -81
-24 -10 -30 -29 -13 -40 20 -12 10 -45 -16 -55 -14 -6 -29 -10 -32 -10 -4 0
-16 33 -26 72 -10 40 -25 86 -33 102 -13 25 -17 27 -25 13 -5 -9 -16 -17 -23
-17 -8 0 -15 -4 -15 -9 0 -5 -9 -11 -20 -14 -21 -5 -29 -51 -10 -62 6 -3 10
-26 10 -51 0 -24 5 -44 10 -44 16 0 12 -46 -5 -60 -13 -11 -15 -7 -15 24 0 24
-5 39 -16 43 -12 4 -14 14 -10 38 5 24 2 34 -9 39 -9 3 -15 18 -15 35 0 16 -4
33 -10 36 -5 3 -10 19 -10 36 0 16 -4 29 -10 29 -5 0 -10 11 -10 24 0 14 -4
28 -10 31 -5 3 -10 14 -10 24 0 10 -7 24 -15 31 -8 7 -13 16 -10 20 3 5 -2 15
-10 23 -8 9 -15 22 -15 30 0 8 -9 22 -20 32 -47 42 -4 115 79 134 42 9 101 53
101 76 0 23 -77 88 -106 91 -43 3 -61 -4 -67 -26 -3 -12 -14 -20 -26 -20 -24
0 -81 -77 -81 -110 0 -11 -7 -23 -15 -27 -12 -4 -3 -18 40 -58 30 -29 55 -56
55 -60 0 -4 18 -44 39 -89 22 -44 47 -103 57 -131 9 -27 21 -54 26 -59 4 -6 8
-23 8 -38 0 -15 4 -28 9 -28 5 0 11 -17 14 -37 15 -104 52 -207 92 -255 15
-18 22 -34 17 -36 -7 -2 -8 -11 -3 -26 5 -12 7 -85 5 -161 -3 -77 -4 -185 -3
-240 1 -55 2 -135 2 -178 0 -57 3 -80 13 -84 8 -3 11 -9 8 -14 -13 -22 -182
-91 -329 -136 -160 -47 -160 -47 -310 -48 -144 0 -154 1 -254 34 -102 34 -133
51 -250 144 l-61 48 -50 -28 c-27 -15 -50 -32 -50 -37 0 -16 81 -110 111 -128
35 -21 46 -45 30 -61 -18 -18 -13 -55 9 -67 11 -6 20 -17 20 -25 0 -35 89 -76
264 -123 91 -24 118 -27 276 -27 133 0 194 5 255 19 304 69 529 172 770 355
79 60 254 212 284 248 13 15 54 62 91 103 104 116 229 288 323 443 286 474
456 986 535 1614 l18 138 116 5 c125 5 131 8 215 88 13 12 26 22 29 22 3 0 30
19 60 42 56 44 69 76 35 85 -28 7 -36 33 -11 33 26 0 80 -48 80 -71 0 -20 -43
-57 -77 -65 -12 -4 -23 -10 -23 -15 0 -15 64 -10 88 7 13 9 25 14 28 11 8 -8
8 -103 1 -322 -8 -213 -16 -312 -43 -510 -8 -60 -17 -128 -20 -150 -13 -102
-81 -355 -95 -355 -5 0 -34 14 -64 31 -45 25 -58 29 -70 19 -8 -7 -15 -20 -15
-30 0 -32 -24 -42 -59 -24 -31 15 -61 13 -61 -4 0 -5 18 -18 40 -31 43 -24 48
-32 26 -50 -10 -8 -16 -9 -21 -1 -3 5 -14 10 -25 10 -16 0 -17 -3 -7 -25 7
-14 15 -25 20 -25 10 0 9 -38 -1 -44 -5 -3 -26 -1 -47 5 -29 8 -40 8 -46 -3
-9 -14 35 -57 59 -58 15 0 15 -10 2 -45 -8 -20 -15 -25 -30 -20 -11 4 -20 2
-20 -4 0 -6 7 -11 16 -11 12 0 15 -6 10 -22 -4 -13 -10 -42 -13 -66 -3 -23
-10 -45 -14 -48 -14 -8 -11 -54 4 -58 6 -2 27 -8 46 -14 32 -11 34 -10 44 18
6 17 14 30 18 30 4 0 10 11 13 25 4 14 11 25 16 25 6 0 10 7 10 15 0 7 7 18
16 23 13 7 14 13 5 30 -9 18 -8 23 9 32 11 6 20 21 20 35 0 13 5 27 10 30 6 3
10 15 10 26 0 11 7 22 15 25 10 4 12 15 8 35 -3 19 -1 29 6 29 6 0 16 12 22
28 6 15 13 22 16 15 5 -14 -35 -154 -48 -167 -5 -6 -9 -20 -9 -32 0 -13 -4
-26 -10 -29 -5 -3 -10 -15 -10 -26 0 -19 -2 -26 -33 -87 -9 -19 -17 -42 -17
-52 0 -10 -4 -22 -10 -25 -5 -3 -10 -17 -10 -31 0 -13 -4 -32 -9 -42 -29 -60
-60 -218 -61 -316 0 -18 -1 -18 -17 -3 -10 8 -40 17 -67 18 -44 3 -50 1 -62
-24 -11 -20 -12 -32 -4 -46 6 -12 6 -22 1 -26 -5 -3 -12 4 -16 15 -8 26 -21
25 -30 -3 l-7 -22 -6 23 c-6 21 -9 18 -21 -23 -10 -34 -11 -49 -2 -58 6 -6 11
-26 11 -45 0 -51 96 -363 159 -521 11 -25 28 -71 39 -101 74 -198 74 -199 93
-187 26 16 34 2 16 -27 -15 -22 -15 -28 -1 -62 11 -27 18 -34 27 -25 26 26 38
-2 15 -39 -7 -10 -9 -23 -5 -27 5 -4 12 -1 16 6 6 10 10 10 16 2 4 -7 1 -19
-6 -27 -10 -13 -9 -22 6 -50 13 -24 21 -31 30 -24 6 5 15 7 18 3 12 -11 8 -41
-5 -46 -10 -3 -10 -11 -3 -33 12 -32 33 -34 88 -11 32 14 34 31 7 75 -11 18
-20 38 -20 45 0 7 -9 32 -20 55 -11 22 -20 47 -20 55 0 8 -7 20 -15 27 -9 7
-14 19 -11 27 6 15 -23 83 -36 83 -4 0 -8 13 -8 29 0 16 -8 46 -19 68 -34 70
-51 114 -51 131 0 10 -9 34 -20 55 -11 20 -20 46 -20 56 0 11 -5 23 -11 27 -7
4 -9 21 -6 40 4 25 2 34 -9 34 -9 0 -14 10 -14 29 0 29 17 55 42 64 10 4 10 7
1 18 -10 10 -17 8 -38 -11 -24 -23 -25 -23 -25 -3 0 20 58 73 79 73 6 0 11
-14 11 -30 0 -18 6 -33 15 -36 8 -4 15 -18 15 -33 0 -15 4 -31 8 -37 5 -5 15
-25 22 -44 7 -19 20 -43 28 -52 8 -10 12 -28 10 -42 -3 -17 1 -31 13 -42 11
-10 19 -24 19 -33 0 -9 9 -31 20 -49 11 -18 20 -44 20 -58 0 -14 11 -40 25
-58 14 -18 25 -42 25 -54 0 -12 9 -36 20 -54 11 -18 20 -42 20 -53 0 -11 12
-38 25 -60 14 -22 25 -46 25 -52 0 -7 13 -40 29 -73 17 -34 35 -78 42 -98 6
-20 17 -46 24 -57 6 -11 22 -47 34 -79 12 -33 30 -71 40 -85 28 -39 61 -112
61 -134 0 -10 8 -31 18 -45 10 -15 26 -45 36 -67 9 -22 22 -49 28 -59 5 -11
11 -30 13 -43 4 -36 21 -50 30 -24 3 12 11 21 16 21 12 0 12 -37 -1 -45 -6 -4
-10 -78 -10 -188 0 -165 -2 -184 -20 -207 -42 -53 -16 -89 55 -76 61 12 93 63
215 336 21 47 51 114 68 150 71 155 242 554 349 815 246 601 399 1112 355
1182 -4 7 -26 16 -47 21 -33 6 -40 12 -42 32 -1 14 -8 45 -16 70 -8 25 -20 70
-27 100 -16 72 -54 185 -80 240 l-21 45 5 -42 c5 -35 3 -43 -9 -43 -9 0 -18
-7 -21 -15 -4 -8 -13 -15 -21 -15 -12 0 -14 -8 -8 -37 10 -62 11 -113 0 -113
-5 0 -11 12 -13 27 -2 15 -8 32 -13 37 -5 6 -9 19 -9 31 0 12 -7 30 -15 41 -8
10 -15 29 -15 41 0 12 -4 25 -10 28 -5 3 -10 16 -10 29 0 12 -3 26 -7 30 -6 6
-17 32 -49 126 -9 25 -20 49 -25 54 -5 6 -9 18 -9 28 0 10 -4 26 -10 36 -17
30 -50 144 -50 174 0 15 5 28 10 28 6 0 10 -15 10 -34 0 -18 7 -39 15 -46 8
-7 15 -24 15 -37 0 -22 3 -24 30 -18 17 4 43 13 59 21 26 13 29 18 21 42 -78
256 -114 509 -126 887 l-7 211 37 1 36 1 1 -56 c2 -51 3 -48 9 26 4 45 11 86
14 90 4 4 66 9 137 12 l130 5 57 60 c31 33 78 75 105 92 51 35 61 65 27 83
-26 14 -26 30 -1 30 20 0 71 -57 71 -78 0 -12 -55 -55 -83 -65 -10 -4 -15 -12
-11 -18 7 -12 71 -3 91 12 20 17 24 -5 28 -163 3 -84 1 -142 -3 -128 -6 19
-18 26 -52 33 -31 6 -39 11 -29 18 8 5 22 9 32 9 14 0 18 6 15 27 -3 24 -9 29
-43 34 -22 4 -43 4 -48 0 -6 -6 -1 -101 18 -317 l5 -61 -42 1 c-33 1 -43 -3
-46 -16 -2 -11 3 -18 13 -18 9 0 13 -5 10 -10 -9 -15 14 -40 30 -34 8 3 21 1
31 -4 14 -8 13 -10 -10 -16 -15 -4 -31 -4 -35 -1 -5 2 -14 -9 -21 -25 -10 -25
-10 -34 4 -55 9 -13 16 -41 16 -61 0 -21 4 -51 9 -68 5 -17 14 -49 20 -71 16
-63 66 -222 101 -318 29 -78 34 -86 45 -70 17 24 33 8 17 -17 -18 -29 -15 -40
10 -37 25 2 38 -30 18 -43 -7 -5 -10 -15 -7 -24 7 -18 77 -23 77 -6 0 6 7 10
15 10 24 0 17 25 -32 127 -8 17 -12 36 -8 43 4 6 2 17 -5 24 -6 8 -15 28 -20
45 -8 30 -7 33 26 48 19 9 34 20 34 25 0 12 -17 10 -39 -4 -15 -9 -23 -9 -35
1 -19 16 -21 31 -3 31 6 0 23 9 37 20 45 35 87 22 61 -19 -7 -11 -4 -18 12
-26 12 -6 24 -22 26 -35 1 -14 12 -37 22 -51 10 -15 19 -36 19 -46 0 -10 6
-27 14 -38 13 -19 26 -42 87 -150 16 -27 42 -79 59 -115 74 -156 217 -374 371
-565 78 -97 80 -106 25 -141 -25 -16 -45 -32 -46 -37 0 -12 109 -126 181 -189
38 -32 69 -63 69 -68 0 -6 15 -16 34 -24 44 -18 59 -45 40 -71 -8 -10 -14 -25
-14 -32 0 -22 20 -14 30 12 11 29 44 34 54 9 4 -9 0 -24 -9 -34 -17 -19 -20
-60 -5 -60 12 0 46 33 52 51 4 11 8 11 18 2 11 -10 10 -17 -3 -36 -23 -35 -11
-62 42 -100 92 -66 243 -127 430 -174 140 -35 153 -37 321 -37 187 -1 256 9
402 60 253 89 458 276 572 525 67 147 110 330 109 472 -1 92 -3 100 -24 115
-13 10 -35 19 -49 22 -21 4 -27 14 -38 60 -26 109 -46 175 -54 184 -4 6 -8 18
-8 27 0 28 -14 30 -58 8 l-40 -20 4 -52 c2 -29 9 -115 15 -192 10 -130 9 -149
-11 -265 -25 -139 -36 -165 -124 -293 -78 -114 -123 -165 -214 -243 -66 -56
-84 -66 -196 -103 -117 -39 -130 -41 -243 -41 -107 0 -133 4 -263 39 -225 62
-341 106 -388 148 -11 11 -11 13 2 13 16 0 15 -21 17 520 1 184 2 185 28 225
30 44 61 126 85 225 8 36 18 75 22 88 5 16 2 22 -10 22 -11 0 -16 -9 -16 -29
0 -17 -4 -33 -10 -36 -5 -3 -10 -19 -10 -34 0 -15 -4 -31 -9 -37 -5 -5 -14
-26 -21 -46 -13 -44 -25 -46 -76 -17 -21 11 -45 18 -54 16 -10 -2 -25 4 -34
14 -18 21 -22 94 -6 104 6 3 10 21 9 38 l-1 32 -9 -32 c-15 -51 -39 -43 -39
12 0 31 -6 51 -19 64 -19 19 -22 19 -53 4 -18 -9 -35 -18 -37 -19 -2 -2 2 -22
9 -43 9 -27 20 -41 36 -45 12 -3 26 -16 29 -27 6 -17 -2 -30 -36 -60 -24 -21
-49 -38 -56 -39 -6 0 -21 12 -32 28 -11 15 -29 36 -40 47 -30 31 -157 225
-201 306 -80 148 -181 359 -176 367 3 5 -1 18 -8 28 -10 13 -11 23 -4 31 7 9
7 18 -2 29 -17 20 2 39 48 49 37 8 40 3 11 -24 -14 -13 -17 -21 -9 -26 7 -4
16 -3 22 3 6 6 17 8 24 5 16 -6 20 32 5 41 -5 3 -11 23 -14 43 -3 21 -11 61
-17 88 -39 165 -47 215 -64 390 -8 77 -11 158 -7 178 l6 38 33 -34 c27 -28 41
-34 80 -35 145 -5 379 -74 584 -171 47 -23 91 -41 97 -41 6 0 11 -5 11 -11 0
-7 12 -10 30 -7 19 3 30 0 30 -7 0 -7 17 -20 37 -31 21 -10 45 -26 55 -34 28
-25 87 -42 122 -36 61 12 119 101 91 139 -8 11 -26 17 -52 17 l-40 0 -16 60
c-10 33 -17 68 -17 77 0 10 -7 31 -15 47 -8 15 -15 37 -15 47 0 25 -25 24 -61
-1 -25 -19 -33 -20 -71 -9 -56 15 -60 17 -49 37 6 11 -1 34 -25 80 -44 82 -44
109 0 144 27 21 41 26 67 22 29 -5 39 0 67 26 17 18 32 36 32 40 0 5 -21 31
-47 59 -61 64 -97 73 -142 35 -22 -19 -38 -24 -55 -20 -21 5 -28 -1 -50 -38
-14 -25 -26 -51 -26 -60 0 -26 -21 -29 -50 -7 -41 30 -229 121 -251 121 -10 0
-21 5 -24 10 -3 6 -20 10 -36 10 -17 0 -40 5 -52 12 -12 7 -64 13 -115 13 -88
2 -113 7 -99 21 4 4 50 7 103 8 l97 1 12 35 c28 82 29 78 -9 94 -23 10 -36 22
-36 33 0 11 -5 24 -12 31 -9 9 -8 12 7 13 19 0 19 1 0 8 -11 5 -21 13 -21 20
-1 6 -2 13 -3 16 -2 10 -66 -27 -112 -66 -33 -27 -52 -36 -68 -32 -11 3 -21
10 -21 16 0 10 85 96 126 128 14 11 24 34 28 64 20 130 105 326 209 480 85
124 283 322 422 420 213 149 498 270 770 324 147 29 243 36 505 35 565 -2 948
-84 1388 -296 28 -14 65 4 81 40 9 18 15 22 23 14 8 -8 6 -22 -5 -51 -9 -22
-13 -42 -9 -45 9 -6 34 14 48 39 25 46 69 11 44 -35 -7 -13 -7 -20 0 -20 5 0
10 4 10 10 0 5 9 14 20 20 16 9 27 3 70 -35 28 -25 55 -45 60 -45 5 0 45 -34
89 -75 44 -41 85 -75 90 -75 5 0 11 8 14 18 3 9 14 29 23 44 l17 26 -72 84
c-112 127 -288 261 -471 355 -138 71 -441 172 -705 235 -204 49 -624 69 -905
44 -443 -40 -426 -38 -565 -75 -151 -41 -237 -77 -470 -199 -175 -91 -341
-220 -534 -417 -94 -96 -171 -181 -171 -188 0 -8 -10 -22 -21 -33 -12 -10 -25
-30 -31 -43 -6 -18 -12 -21 -20 -13 -9 9 -8 16 3 29 8 10 21 31 29 47 14 27
82 105 173 198 20 21 37 43 37 48 0 6 4 10 8 10 4 0 6 30 4 66 -3 49 -1 69 9
76 11 7 11 11 2 15 -14 5 -18 55 -6 67 7 7 9 43 15 268 2 54 6 98 11 98 7 0 8
14 9 98 0 23 4 42 10 42 5 0 6 9 3 20 -4 11 -2 20 4 20 6 0 11 15 11 34 0 19
4 36 9 38 6 2 11 46 13 98 1 52 6 98 11 101 5 4 9 20 9 35 0 16 5 32 10 35 5
3 11 34 14 68 2 35 9 71 14 81 6 10 10 30 10 43 0 14 6 27 14 30 10 4 13 17 9
47 -3 23 0 60 7 83 7 23 19 61 26 85 8 23 14 56 14 72 0 17 4 30 9 30 9 0 16
35 27 133 3 26 10 47 15 47 5 0 9 20 9 44 0 24 5 46 11 48 5 2 13 22 16 46 3
23 10 42 14 42 5 0 9 16 9 35 0 19 4 35 9 35 5 0 11 17 14 38 10 68 31 157 38
162 6 5 12 32 25 123 4 20 10 37 15 37 5 0 9 7 9 15 0 8 -6 13 -12 11 -7 -1
-10 -1 -5 1 4 3 7 9 7 14 0 5 30 40 66 77 103 104 201 225 147 181 -37 -30
-384 -388 -442 -456 -34 -40 -70 -77 -80 -83 -11 -5 -24 -22 -29 -37 -13 -34
-68 -93 -87 -93 -7 0 -18 -15 -25 -34 -11 -34 -42 -69 -71 -79 -9 -3 -19 -18
-22 -34 -7 -34 -42 -73 -66 -73 -12 0 -20 -12 -27 -37 -11 -46 -34 -53 -73
-21 -15 13 -37 28 -47 34 -15 10 -17 16 -8 30 15 25 46 29 84 9 45 -23 49 -11
9 26 l-33 31 21 37 c25 43 42 48 85 27 43 -22 45 -14 8 24 l-31 31 20 28 c32
45 47 54 70 42 33 -18 48 -12 22 10 -22 18 -23 22 -11 44 8 14 32 44 55 68 23
23 56 62 73 86 56 77 189 224 400 439 45 47 82 88 82 92 0 4 -6 13 -14 19 -12
10 -13 8 -9 -8 4 -17 0 -21 -23 -22 -16 -1 -32 -1 -35 -1 -3 1 -12 -10 -19
-23 -7 -14 -20 -26 -29 -26 -9 -1 -24 -2 -33 -3 -9 -1 -32 -16 -52 -35 -19
-18 -38 -31 -44 -27 -13 8 -188 -176 -342 -360 -351 -417 -531 -675 -650 -929
-23 -50 -46 -100 -52 -111 -11 -24 -2 -68 12 -59 13 8 61 -25 54 -37 -4 -5
-11 -5 -18 1 -7 6 -16 8 -19 4 -4 -3 -15 1 -26 11 -14 13 -20 14 -29 4 -14
-17 -42 -98 -42 -122 0 -16 2 -17 16 -5 14 11 19 9 35 -11 29 -38 20 -64 -21
-65 -8 0 -16 -8 -18 -18 -3 -13 2 -17 15 -15 21 4 21 -2 5 -59 -7 -24 -17 -43
-23 -43 -6 0 -8 -12 -4 -29 3 -16 2 -38 -3 -48 -5 -10 -17 -40 -26 -67 -17
-52 -10 -76 23 -76 9 0 22 -5 28 -11 6 -6 16 -8 22 -5 16 10 1 36 -20 36 -10
0 -19 6 -19 14 0 21 19 30 35 16 18 -15 35 -5 35 19 0 10 7 24 15 31 8 7 17
27 21 44 3 18 19 45 35 61 21 19 27 31 20 38 -16 16 -14 21 20 56 32 34 52 34
31 1 -7 -11 -12 -26 -12 -34 0 -7 -7 -19 -15 -26 -8 -7 -14 -18 -13 -24 1 -6
-7 -31 -18 -56 -12 -25 -27 -65 -34 -90 -7 -25 -16 -56 -20 -70 -5 -14 -21
-65 -35 -115 -25 -81 -105 -323 -169 -512 -14 -39 -42 -167 -62 -285 -36 -205
-38 -225 -46 -538 -4 -179 -8 -344 -8 -368 -1 -28 -6 -45 -15 -49 -8 -3 -15
-11 -15 -18 0 -13 -53 -45 -74 -45 -17 0 -67 50 -61 60 3 6 1 27 -4 47 -9 31
-8 40 4 49 13 10 6 21 -45 70 l-61 59 -60 -3 c-57 -4 -62 -6 -128 -67 -52 -48
-75 -62 -90 -58 -23 6 -28 -6 -9 -25 9 -9 9 -15 0 -24 -7 -7 -12 -22 -12 -34
0 -13 -5 -26 -11 -30 -8 -5 -6 -10 5 -16 44 -25 -7 -39 -57 -15 -32 14 -32 17
-9 43 9 10 24 28 32 39 12 16 10 16 -11 -2 -37 -33 -65 -30 -78 8 -14 40 -14
82 -1 74 6 -3 10 -17 10 -31 0 -15 6 -24 15 -24 27 0 104 44 111 63 3 10 29
42 57 71 72 74 77 86 77 168 0 99 46 434 91 663 92 466 279 1026 534 1595 111
248 368 761 520 1040 65 118 134 244 153 280 19 36 42 76 51 90 42 67 341 666
341 685 0 3 11 28 24 57 95 211 193 542 226 769 8 57 9 247 1 266 -1 1 -20 1
-43 0 l-43 -2 -2 45 c-4 70 -32 251 -65 410 -42 208 -44 215 -52 228 -4 6 -15
42 -26 79 -40 144 -80 230 -80 173z m-5050 -2782 c11 -12 20 -28 20 -36 0 -20
-64 18 -68 41 -5 24 23 21 48 -5z m514 -327 c14 -26 13 -29 -23 -64 -30 -29
-46 -37 -75 -37 -35 0 -36 1 -36 39 0 31 5 42 26 56 14 9 32 14 40 11 7 -3 18
4 24 15 13 23 25 18 44 -20z m196 -111 c0 -5 -5 -10 -11 -10 -5 0 -7 5 -4 10
3 6 8 10 11 10 2 0 4 -4 4 -10z m850 -225 c0 -8 -2 -15 -4 -15 -2 0 -6 7 -10
15 -3 8 -1 15 4 15 6 0 10 -7 10 -15z m3026 -347 c41 -20 55 -40 36 -51 -12
-8 -92 44 -92 59 0 19 5 18 56 -8z m-43 -80 c23 -11 37 -23 31 -25 -7 -2 -29
8 -49 22 -46 31 -38 32 18 3z m-3 -188 c0 -5 -4 -10 -10 -10 -5 0 -10 5 -10
10 0 6 5 10 10 10 6 0 10 -4 10 -10z m-160 -290 c0 -5 -5 -10 -11 -10 -5 0 -7
5 -4 10 3 6 8 10 11 10 2 0 4 -4 4 -10z m-20 -40 c0 -6 -4 -18 -9 -28 -5 -9
-12 -25 -15 -34 -3 -10 -10 -18 -16 -18 -16 0 -12 40 5 46 8 4 15 15 15 25 0
10 5 19 10 19 6 0 10 -5 10 -10z m-59 -133 c-8 -8 -11 -7 -11 4 0 20 13 34 18
19 3 -7 -1 -17 -7 -23z m-2205 -388 c7 -19 18 -61 25 -94 6 -33 18 -70 25 -81
14 -23 9 -34 -14 -34 -8 0 -12 6 -9 14 3 8 0 20 -8 26 -7 6 -11 20 -8 30 6 21
-20 29 -32 10 -9 -15 -50 -5 -53 13 -3 12 4 17 23 17 14 0 28 7 32 15 8 23 -2
28 -26 13 -28 -17 -54 -1 -61 38 -5 25 0 31 35 50 22 12 44 20 50 19 5 -1 15
-17 21 -36z m-516 -109 c0 -5 -5 -10 -11 -10 -5 0 -7 5 -4 10 3 6 8 10 11 10
2 0 4 -4 4 -10z m480 -80 c0 -5 -5 -10 -11 -10 -5 0 -7 5 -4 10 3 6 8 10 11
10 2 0 4 -4 4 -10z m200 -206 c0 -8 -4 -12 -10 -9 -5 3 -10 10 -10 16 0 5 5 9
10 9 6 0 10 -7 10 -16z m20 -90 c0 -8 -4 -12 -10 -9 -5 3 -10 10 -10 16 0 5 5
9 10 9 6 0 10 -7 10 -16z m23 -87 c3 -8 2 -19 -3 -26 -5 -10 -9 -8 -14 4 -3 9
-6 21 -6 26 0 14 17 11 23 -4z m-683 -68 c0 -11 -4 -17 -10 -14 -5 3 -10 13
-10 21 0 8 5 14 10 14 6 0 10 -9 10 -21z m710 -46 c0 -7 -4 -13 -9 -13 -10 0
-21 36 -13 45 7 7 22 -15 22 -32z m-693 -75 c-3 -7 -5 -2 -5 12 0 14 2 19 5
13 2 -7 2 -19 0 -25z m707 -4 c3 -9 6 -25 6 -36 0 -17 -3 -18 -15 -8 -16 13
-21 60 -6 60 5 0 12 -7 15 -16z m-687 -131 c-3 -10 -5 -4 -5 12 0 17 2 24 5
18 2 -7 2 -21 0 -30z m33 -135 c0 -5 -4 -8 -10 -8 -5 0 -10 10 -10 23 0 18 2
19 10 7 5 -8 10 -18 10 -22z m2951 9 c-13 -13 -26 -3 -16 12 3 6 11 8 17 5 6
-4 6 -10 -1 -17z m-21 -53 c0 -8 -5 -12 -10 -9 -6 4 -8 11 -5 16 9 14 15 11
15 -7z m-1440 -79 c0 -50 -4 -85 -10 -85 -11 0 -14 152 -3 163 12 13 13 7 13
-78z m1420 31 c0 -3 -4 -8 -10 -11 -5 -3 -10 -1 -10 4 0 6 5 11 10 11 6 0 10
-2 10 -4z m-1449 -404 c-7 -12 -10 22 -11 114 0 72 3 134 8 138 11 12 14 -232
3 -252z m1446 -218 c13 -13 14 -20 5 -35 -7 -10 -12 -28 -12 -38 0 -11 -5 -23
-11 -27 -8 -5 -6 -10 5 -16 24 -13 19 -28 -9 -28 -21 0 -41 7 -74 28 -3 1 4
12 15 25 11 12 26 31 34 42 12 17 11 17 -11 -2 -32 -29 -69 -31 -69 -4 0 12
16 27 48 44 59 30 60 30 79 11z m-3604 -394 c4 0 7 -4 7 -10 0 -6 -42 -10
-105 -10 -58 0 -105 4 -105 9 0 5 6 11 13 14 9 3 104 2 190 -3z m1310 0 c4 0
7 -4 7 -10 0 -6 -102 -10 -285 -10 -251 0 -298 4 -281 21 3 3 431 2 559 -1z
m1515 -9 c3 -8 -84 -11 -282 -11 -252 0 -299 3 -282 21 10 10 561 0 564 -10z
m940 11 c6 -1 12 -6 12 -12 0 -6 -42 -10 -105 -10 -92 0 -117 5 -101 21 4 4
163 4 194 1z m-4040 -34 c-3 -7 -17 -13 -33 -13 -16 0 -30 6 -32 13 -3 8 7 12
32 12 25 0 35 -4 33 -12z m345 -3 c4 -17 -40 -17 -47 0 -5 13 0 16 19 13 14
-2 27 -7 28 -13z m657 5 c0 -6 -10 -14 -23 -19 -30 -12 -45 -30 -49 -64 -4
-34 -22 -37 -26 -4 -2 15 9 35 33 60 35 36 65 48 65 27z m1510 0 c0 -6 -8 -14
-17 -17 -29 -11 -53 -42 -53 -69 0 -16 -5 -24 -12 -22 -19 7 -21 43 -3 58 8 7
15 18 15 24 0 11 35 33 58 35 6 0 12 -4 12 -9z m1308 -2 c-7 -19 -38 -22 -38
-4 0 10 9 16 21 16 12 0 19 -5 17 -12z m372 3 c0 -16 -20 -23 -46 -17 -36 9
-29 26 11 26 19 0 35 -4 35 -9z m-4300 -26 c0 -16 -45 -21 -54 -6 -8 12 4 21
31 21 14 0 23 -6 23 -15z m4391 0 c0 -5 -12 -11 -26 -13 -18 -2 -25 1 -25 13
0 12 7 15 25 13 14 -2 26 -7 26 -13z m-4493 -22 c2 -8 -5 -13 -17 -13 -21 0
-35 13 -24 24 10 10 36 3 41 -11z m4590 0 c2 -8 -6 -13 -22 -13 -25 0 -33 10
-19 24 10 10 36 3 41 -11z m72 -24 c0 -5 -11 -9 -25 -9 -26 0 -34 15 -12 23
16 5 37 -3 37 -14z m-4730 1 c0 -5 -11 -10 -25 -10 -14 0 -25 5 -25 10 0 6 11
10 25 10 14 0 25 -4 25 -10z m-70 -19 c0 -6 -4 -12 -9 -15 -13 -8 -42 4 -35
15 7 12 44 12 44 0z m4870 -1 c0 -5 11 -10 25 -10 16 0 25 -6 25 -15 0 -17
-22 -20 -48 -6 -9 5 -25 12 -34 15 -27 8 -22 26 7 26 14 0 25 -4 25 -10z
m-4930 -25 c0 -8 -9 -15 -20 -15 -11 0 -20 7 -20 15 0 8 9 15 20 15 11 0 20
-7 20 -15z m5040 -20 c7 -8 21 -15 31 -15 11 0 19 -4 19 -10 0 -5 9 -10 20
-10 11 0 20 -7 20 -15 0 -8 -6 -15 -14 -15 -7 0 -19 7 -26 15 -7 8 -21 15 -31
15 -11 0 -19 5 -19 10 0 6 -9 10 -19 10 -21 0 -34 13 -24 24 11 11 30 7 43 -9z
m-3720 -105 c0 -90 -5 -120 -21 -120 -10 0 -13 203 -3 213 17 17 24 -11 24
-93z m1718 4 c31 -21 28 -31 -8 -26 -21 3 -30 10 -30 23 0 23 9 24 38 3z
m-1748 -229 c0 -25 -4 -45 -10 -45 -11 0 -14 73 -3 83 11 12 13 8 13 -38z
m2890 -49 c0 -35 5 -58 15 -66 16 -13 19 -38 9 -64 -10 -25 -24 -8 -24 29 0
19 -4 37 -10 40 -5 3 -10 31 -10 61 0 30 5 54 10 54 6 0 10 -24 10 -54z
m-2910 -121 c0 -8 -4 -17 -10 -20 -6 -4 -10 5 -10 20 0 15 4 24 10 20 6 -3 10
-12 10 -20z m-22 -99 c-2 -15 -7 -28 -13 -29 -12 -2 -19 38 -10 60 9 25 27 1
23 -31z m2982 18 c0 -8 -4 -14 -10 -14 -5 0 -10 9 -10 21 0 11 5 17 10 14 6
-3 10 -13 10 -21z m-3004 -89 c8 -21 -4 -67 -16 -60 -13 8 -13 75 0 75 6 0 13
-7 16 -15z m-23 -89 c7 -17 -2 -56 -13 -56 -11 0 -20 39 -13 56 3 8 9 14 13
14 4 0 10 -6 13 -14z m-23 -102 c0 -24 -4 -34 -12 -32 -24 8 -22 68 2 68 5 0
10 -16 10 -36z m-570 16 c0 -5 -4 -10 -9 -10 -6 0 -13 5 -16 10 -3 6 1 10 9
10 9 0 16 -4 16 -10z m550 -96 c0 -15 -6 -24 -15 -24 -15 0 -21 40 -9 53 12
11 24 -3 24 -29z m2600 7 c0 -6 -4 -13 -10 -16 -5 -3 -10 1 -10 9 0 9 5 16 10
16 6 0 10 -4 10 -9z m-2622 -77 c-5 -28 -28 -29 -28 -1 0 13 3 27 7 31 10 10
25 -10 21 -30z m2662 7 c-1 -28 -93 -72 -112 -53 -14 14 -15 12 41 45 39 22
71 26 71 8z m-2687 -55 c3 -8 0 -22 -7 -31 -12 -16 -13 -16 -19 -1 -7 18 1 46
13 46 4 0 10 -6 13 -14z m-23 -75 c0 -23 -16 -36 -25 -21 -9 14 1 40 15 40 5
0 10 -9 10 -19z m1867 -53 c-3 -7 -5 -2 -5 12 0 14 2 19 5 13 2 -7 2 -19 0
-25z m-1892 -18 c-5 -8 -11 -8 -17 -2 -6 6 -7 16 -3 22 5 8 11 8 17 2 6 -6 7
-16 3 -22z m-25 -56 c0 -8 -5 -12 -10 -9 -6 4 -8 11 -5 16 9 14 15 11 15 -7z
m-20 -55 c0 -5 -4 -9 -10 -9 -5 0 -10 7 -10 16 0 8 5 12 10 9 6 -3 10 -10 10
-16z m876 -18 c5 -5 22 -11 38 -13 32 -3 41 -15 27 -37 -7 -11 -17 -9 -55 15
-25 16 -45 32 -46 37 0 10 24 9 36 -2z m-896 -26 c0 -8 -7 -15 -15 -15 -8 0
-15 7 -15 15 0 8 7 15 15 15 8 0 15 -7 15 -15z m-20 -39 c0 -16 -18 -31 -27
-22 -8 8 5 36 17 36 5 0 10 -6 10 -14z m-20 -45 c0 -5 -7 -16 -15 -25 -8 -8
-15 -22 -15 -30 0 -9 -4 -16 -10 -16 -5 0 -10 -6 -10 -13 0 -25 -32 -79 -41
-70 -10 10 14 68 32 78 5 4 9 15 9 26 0 10 5 19 10 19 6 0 10 9 10 20 0 11 7
20 15 20 8 0 15 -4 15 -9z m-694 -22 c36 -22 41 -33 22 -45 -7 -4 -18 2 -26
14 -8 12 -23 22 -33 22 -19 0 -25 11 -12 23 9 10 12 9 49 -14z m-58 -79 c34
-21 38 -30 22 -61 -14 -25 -39 -24 -72 6 -32 28 -36 50 -10 64 23 14 22 14 60
-9z m-61 -82 c18 -13 33 -30 33 -38 -1 -20 -138 -170 -156 -170 -9 0 -14 11
-14 28 0 50 -12 102 -24 102 -6 0 -22 -12 -36 -26 -42 -45 -68 -58 -85 -44
-26 21 -17 38 32 60 26 11 56 28 66 37 14 14 22 15 36 6 16 -10 23 -6 50 28
37 45 52 48 98 17z m6338 13 c3 -5 1 -12 -5 -16 -5 -3 -10 1 -10 9 0 18 6 21
15 7z m-5625 -16 c0 -8 -4 -15 -10 -15 -5 0 -10 7 -10 15 0 8 5 15 10 15 6 0
10 -7 10 -15z m-20 -40 c0 -8 -4 -15 -10 -15 -5 0 -10 7 -10 15 0 8 5 15 10
15 6 0 10 -7 10 -15z m4185 -67 c19 -13 35 -30 35 -39 0 -29 -63 -69 -76 -48
-12 21 -16 109 -5 109 6 0 27 -10 46 -22z m-5045 -36 c0 -53 -24 -75 -59 -53
-12 8 -9 15 12 41 15 17 27 36 27 41 0 5 5 9 10 9 6 0 10 -17 10 -38z m4970 2
c0 -36 -15 -74 -28 -74 -4 0 -15 7 -26 15 -18 14 -18 15 8 45 14 17 26 36 26
41 0 5 5 9 10 9 6 0 10 -16 10 -36z m-1707 -48 c6 -15 -1 -26 -15 -26 -4 0 -8
9 -8 20 0 23 15 27 23 6z m-5 -395 c-2 -28 -7 -52 -13 -54 -11 -2 -19 87 -10
111 11 31 26 -5 23 -57z m-24 -97 c8 -20 -2 -54 -15 -54 -5 0 -9 16 -9 35 0
37 13 47 24 19z m-24 -104 c0 -33 -15 -41 -22 -12 -6 21 1 42 13 42 5 0 9 -13
9 -30z m-20 -74 c0 -14 -5 -28 -10 -31 -13 -8 -24 20 -16 40 9 24 26 17 26 -9z
m-25 -71 c0 -10 -6 -20 -12 -22 -8 -3 -13 5 -13 22 0 17 5 25 13 23 6 -3 12
-13 12 -23z m-1371 6 c12 -18 -6 -43 -27 -37 -13 3 -26 -2 -33 -12 -10 -13
-13 -13 -14 -3 0 16 40 58 57 60 6 1 14 -3 17 -8z m1348 -63 c6 -17 -1 -38
-13 -38 -5 0 -9 11 -9 25 0 26 14 34 22 13z m-22 -72 c0 -14 -4 -27 -9 -30
-10 -7 -20 23 -14 42 8 21 23 13 23 -12z m-20 -65 c0 -23 -16 -36 -25 -21 -9
14 1 40 15 40 5 0 10 -9 10 -19z m-25 -66 c0 -10 -6 -20 -12 -22 -8 -3 -13 5
-13 22 0 17 5 25 13 23 6 -3 12 -13 12 -23z m-25 -60 c0 -14 -4 -25 -10 -25
-5 0 -10 11 -10 25 0 14 5 25 10 25 6 0 10 -11 10 -25z m-20 -60 c0 -14 -4
-25 -9 -25 -12 0 -19 21 -13 38 8 21 22 13 22 -13z m-20 -54 c0 -23 -16 -36
-25 -21 -9 14 1 40 15 40 5 0 10 -9 10 -19z m-25 -66 c0 -10 -6 -20 -12 -22
-8 -3 -13 5 -13 22 0 17 5 25 13 23 6 -3 12 -13 12 -23z m-25 -55 c0 -11 -4
-20 -10 -20 -5 0 -10 9 -10 20 0 11 5 20 10 20 6 0 10 -9 10 -20z m-20 -55 c0
-14 -4 -25 -9 -25 -12 0 -19 21 -13 38 8 21 22 13 22 -13z m-20 -55 c0 -11 -7
-20 -15 -20 -15 0 -21 21 -8 33 12 13 23 7 23 -13z m-23 -64 c-4 -9 -11 -16
-17 -16 -11 0 -14 33 -3 44 11 10 26 -11 20 -28z m-27 -45 c0 -11 -4 -23 -10
-26 -5 -3 -10 -18 -10 -31 0 -15 -5 -24 -12 -22 -19 7 -20 24 -3 41 8 9 15 25
15 36 0 12 5 21 10 21 6 0 10 -9 10 -19z m-40 -111 c0 -11 -7 -20 -15 -20 -8
0 -15 9 -15 20 0 11 7 20 15 20 8 0 15 -9 15 -20z m-36 -71 c-7 -8 -14 -25
-14 -37 0 -12 -4 -22 -10 -22 -13 0 -13 25 -1 48 5 9 12 26 16 37 5 16 8 17
15 5 6 -10 4 -20 -6 -31z m-34 -89 c0 -11 -7 -20 -15 -20 -15 0 -21 21 -8 33
12 13 23 7 23 -13z m-20 -56 c0 -8 -7 -14 -15 -14 -15 0 -21 21 -9 33 10 9 24
-2 24 -19z m-27 -61 c-3 -7 -9 -13 -14 -13 -11 0 -12 34 -2 43 9 10 22 -13 16
-30z m-23 -43 c0 -11 -4 -20 -10 -20 -5 0 -10 9 -10 20 0 11 5 20 10 20 6 0
10 -9 10 -20z m-20 -50 c0 -11 -7 -20 -15 -20 -15 0 -21 21 -8 33 12 13 23 7
23 -13z m-22 -47 c-5 -25 -28 -28 -28 -4 0 12 6 21 16 21 9 0 14 -7 12 -17z
m-28 -53 c0 -11 -4 -20 -10 -20 -5 0 -10 9 -10 20 0 11 5 20 10 20 6 0 10 -9
10 -20z m-20 -50 c0 -11 -4 -20 -10 -20 -5 0 -10 9 -10 20 0 11 5 20 10 20 6
0 10 -9 10 -20z m-20 -55 c0 -8 -7 -15 -15 -15 -16 0 -20 12 -8 23 11 12 23 8
23 -8z m-28 -50 c0 -5 -5 -11 -11 -13 -6 -2 -11 4 -11 13 0 9 5 15 11 13 6 -2
11 -8 11 -13z m-22 -50 c0 -8 -4 -15 -10 -15 -5 0 -10 7 -10 15 0 8 5 15 10
15 6 0 10 -7 10 -15z"/>
<path d="M11720 13200 c0 -5 5 -10 10 -10 6 0 10 5 10 10 0 6 -4 10 -10 10 -5
0 -10 -4 -10 -10z"/>
<path d="M11781 13194 c0 -11 3 -14 6 -6 3 7 2 16 -1 19 -3 4 -6 -2 -5 -13z"/>
<path d="M7414 13089 c-3 -6 -1 -16 5 -22 8 -8 11 -5 11 11 0 24 -5 28 -16 11z"/>
<path d="M7395 13018 c-4 -10 -4 -26 0 -35 8 -17 8 -17 12 0 3 9 3 25 0 35 -4
16 -4 16 -12 0z"/>
<path d="M7370 12919 c0 -17 4 -28 10 -24 6 3 10 17 10 31 0 13 -4 24 -10 24
-5 0 -10 -14 -10 -31z"/>
<path d="M7352 12840 c0 -14 2 -19 5 -12 2 6 2 18 0 25 -3 6 -5 1 -5 -13z"/>
<path d="M12140 12409 c0 -5 5 -7 10 -4 6 3 10 8 10 11 0 2 -4 4 -10 4 -5 0
-10 -5 -10 -11z"/>
<path d="M7144 12103 c-4 -27 -6 -67 -5 -90 3 -39 1 -43 -21 -44 -55 -3 -53
-1 -51 -59 1 -30 3 -66 3 -80 1 -41 29 -144 72 -268 46 -136 52 -149 62 -133
10 16 26 14 26 -4 0 -8 -4 -15 -10 -15 -14 0 -12 -42 4 -62 13 -17 19 -17 89
8 23 8 22 45 -3 77 -11 14 -20 37 -20 51 0 14 -6 43 -14 63 -14 38 -25 79 -25
98 -1 15 79 57 95 51 8 -3 14 -17 14 -31 0 -14 7 -28 16 -32 10 -4 14 -13 10
-26 -3 -14 6 -34 28 -61 26 -32 31 -45 23 -57 -8 -13 -4 -24 22 -50 24 -23 31
-39 28 -56 -3 -16 2 -31 14 -41 9 -10 40 -60 67 -112 27 -52 59 -112 70 -133
12 -21 22 -44 22 -52 0 -8 6 -18 13 -22 7 -4 21 -25 31 -46 10 -21 20 -36 23
-33 3 3 -1 20 -10 38 -8 18 -25 56 -37 83 -30 67 -91 197 -151 322 -27 56 -49
106 -49 112 0 6 -4 11 -10 11 -5 0 -10 7 -10 15 0 8 -4 23 -10 33 -13 25 -70
190 -82 237 -5 22 -16 47 -24 57 -10 10 -13 25 -9 38 5 15 -2 30 -24 56 -23
26 -31 44 -31 73 0 51 -31 91 -72 91 -21 0 -31 6 -35 20 -9 34 -20 23 -29 -27z
m184 -354 c4 -22 -78 -64 -90 -46 -5 7 1 19 15 29 12 10 27 22 32 28 15 14 39
7 43 -11z m-66 -311 c-7 -7 -12 -8 -12 -2 0 14 12 26 19 19 2 -3 -1 -11 -7
-17z"/>
<path d="M7301 12072 c-10 -25 -11 -36 -3 -44 17 -17 24 -5 20 38 l-3 39 -14
-33z"/>
<path d="M3665 11665 c-71 -8 -144 -19 -160 -25 -17 -5 -52 -13 -78 -16 -26
-4 -47 -10 -47 -14 0 -4 -26 -15 -57 -25 -32 -10 -82 -29 -111 -42 -29 -12
-61 -23 -72 -23 -11 0 -20 -4 -20 -9 0 -5 -9 -12 -20 -16 -11 -3 -19 -12 -17
-18 1 -8 -10 -11 -33 -9 -23 2 -31 0 -22 -6 11 -7 11 -10 -2 -15 -9 -4 -16
-13 -16 -22 0 -16 30 -14 75 5 59 25 277 71 425 90 114 14 122 13 116 -8 -4
-11 3 -33 18 -54 l24 -36 -87 -22 c-47 -12 -102 -25 -121 -31 -19 -5 -46 -10
-60 -11 -17 -2 -26 -10 -28 -25 -4 -26 -37 -32 -46 -8 -8 23 -25 18 -36 -11
-9 -24 -11 -24 -32 -10 -24 17 -51 5 -41 -20 3 -8 -1 -14 -11 -14 -9 0 -16 5
-16 10 0 22 -31 8 -41 -17 -10 -26 -11 -27 -24 -9 -17 22 -38 12 -30 -15 7
-21 -5 -25 -23 -7 -6 6 -15 9 -19 5 -14 -15 16 -24 136 -42 161 -23 180 -14
185 87 1 27 6 33 36 41 19 5 39 13 45 18 5 5 21 9 35 9 14 0 35 6 46 14 11 8
51 16 89 19 39 3 110 10 160 15 160 19 993 -12 1110 -41 178 -44 208 -46 213
-12 7 49 13 65 22 60 5 -3 11 -1 14 4 12 19 -68 53 -162 68 -19 3 -36 13 -38
22 -3 9 -10 24 -15 34 -6 11 -6 17 2 17 23 0 -3 18 -33 23 -72 12 -120 25
-131 36 -6 6 -27 11 -47 11 -19 0 -55 5 -79 11 -24 5 -73 12 -110 14 -36 3
-112 9 -169 15 -186 18 -555 21 -697 5z"/>
<path d="M14915 11669 c-250 -14 -652 -59 -709 -79 -16 -5 -46 -10 -67 -10
-21 0 -40 -4 -43 -9 -4 -5 -25 -12 -49 -16 -23 -4 -62 -13 -86 -21 -24 -8 -46
-12 -49 -10 -2 3 -10 -1 -17 -8 -7 -7 -39 -18 -71 -26 -33 -8 -63 -20 -67 -27
-4 -7 -22 -13 -40 -14 -18 0 -26 -3 -19 -6 26 -10 10 -18 -30 -15 -35 2 -40 1
-25 -8 23 -15 11 -33 -17 -26 -17 4 -21 0 -22 -20 -2 -22 1 -25 20 -19 11 4
40 11 64 16 65 14 123 27 172 39 123 29 345 63 525 80 131 12 164 12 146 1
-12 -7 -10 -14 8 -36 11 -15 21 -34 21 -41 0 -17 -13 -16 240 -13 401 5 615 1
700 -12 93 -14 150 -16 193 -4 21 6 27 4 27 -9 0 -8 -11 -18 -25 -22 -14 -3
-22 -10 -19 -15 7 -13 44 -11 44 2 0 5 14 15 30 20 31 11 38 23 20 34 -6 4 -3
21 7 46 19 49 13 57 -54 74 -45 11 -48 14 -56 54 -5 24 -14 41 -22 41 -7 0
-15 5 -17 12 -2 6 -38 20 -79 30 -91 23 -395 31 -634 17z"/>
<path d="M4878 11583 c7 -3 16 -2 19 1 4 3 -2 6 -13 5 -11 0 -14 -3 -6 -6z"/>
<path d="M5186 11383 c3 -21 7 -42 8 -48 0 -5 -14 -11 -32 -13 -39 -4 -33 -22
8 -22 35 0 37 3 46 68 6 49 5 52 -15 52 -20 0 -21 -4 -15 -37z"/>
<path d="M13540 11350 c0 -13 5 -20 13 -17 6 2 12 10 12 17 0 7 -6 15 -12 18
-8 2 -13 -5 -13 -18z"/>
<path d="M15742 11318 c3 -7 15 -15 29 -17 13 -1 27 -7 30 -13 7 -11 79 0 79
13 0 5 -16 9 -35 9 -19 0 -35 5 -35 10 0 6 -16 10 -36 10 -24 0 -34 -4 -32
-12z"/>
<path d="M7313 11310 c-13 -5 -23 -14 -23 -20 0 -5 -7 -10 -15 -10 -17 0 -19
-14 -5 -40 9 -17 14 -18 38 -8 62 27 72 38 60 64 -12 26 -20 28 -55 14z"/>
<path d="M15852 11149 c-31 -9 -32 -11 -26 -47 4 -20 10 -38 13 -40 27 -11 34
-21 24 -34 -13 -17 -9 -88 6 -97 6 -4 9 -15 5 -24 -4 -11 0 -19 10 -23 11 -4
16 -19 16 -45 0 -22 5 -39 11 -39 7 0 9 -9 6 -21 -5 -20 10 -69 22 -69 3 0 7
-26 9 -58 2 -31 7 -58 13 -60 5 -2 9 -12 9 -23 0 -10 5 -19 10 -19 6 0 10 -16
10 -35 0 -19 4 -35 9 -35 6 0 13 -20 17 -45 3 -25 10 -45 15 -45 5 0 9 -9 9
-20 0 -11 4 -20 9 -20 5 0 11 -13 15 -30 3 -16 9 -43 12 -60 4 -16 11 -30 16
-30 6 0 7 -11 4 -24 -8 -34 4 -86 20 -86 8 0 14 -10 14 -24 0 -13 6 -27 13
-29 9 -4 9 -8 -2 -15 -11 -8 -10 -14 8 -33 14 -15 21 -36 21 -61 0 -21 5 -38
10 -38 6 0 8 -11 4 -25 -5 -19 -2 -25 11 -25 12 0 15 -5 10 -20 -4 -11 -2 -20
4 -20 6 0 11 -11 11 -24 0 -13 6 -26 12 -28 7 -3 11 -18 10 -36 -1 -18 2 -32
8 -32 5 0 10 -9 10 -19 0 -11 6 -22 13 -25 10 -5 10 -7 0 -12 -19 -8 -16 -34
3 -34 13 0 15 -7 10 -30 -4 -22 -1 -32 9 -36 9 -4 15 -19 15 -35 0 -16 5 -29
10 -29 6 0 10 -16 10 -35 0 -19 4 -35 9 -35 5 0 11 -12 14 -27 18 -90 31 -133
38 -133 5 0 9 -18 9 -40 0 -22 5 -40 10 -40 6 0 10 -22 10 -50 0 -27 4 -50 9
-50 5 0 12 -20 15 -45 4 -25 11 -45 17 -45 5 0 9 -16 9 -35 0 -19 5 -35 10
-35 6 0 10 -15 10 -34 0 -19 6 -37 13 -39 9 -4 8 -8 -3 -16 -11 -8 -12 -13 -4
-18 6 -5 14 -24 17 -43 3 -19 10 -57 16 -85 6 -27 15 -77 20 -109 6 -33 15
-62 20 -65 5 -4 11 -33 13 -66 2 -33 7 -63 11 -66 5 -3 9 -36 9 -73 0 -36 4
-66 9 -66 5 0 9 -9 9 -19 0 -11 6 -22 13 -24 9 -4 9 -7 0 -14 -16 -12 -13
-134 4 -151 21 -21 19 -518 -2 -538 -10 -10 -15 -35 -15 -75 0 -32 -4 -59 -8
-59 -4 0 -9 -23 -10 -51 -1 -28 -7 -59 -12 -69 -6 -10 -10 -32 -10 -49 0 -17
-4 -31 -9 -31 -5 0 -11 -19 -15 -42 -4 -23 -11 -45 -16 -48 -5 -3 -11 -33 -14
-65 -5 -66 -13 -95 -27 -95 -5 0 -9 -13 -9 -30 0 -16 -4 -30 -10 -30 -5 0 -10
-14 -10 -31 0 -17 -7 -37 -15 -46 -8 -8 -13 -19 -10 -24 3 -4 -1 -22 -10 -38
-8 -17 -15 -39 -15 -51 0 -11 -5 -20 -11 -20 -6 0 -8 -8 -4 -19 3 -11 1 -22
-5 -26 -6 -3 -8 -10 -5 -15 3 -5 -2 -15 -10 -23 -8 -9 -12 -23 -9 -31 4 -11 1
-16 -10 -16 -9 0 -16 -8 -16 -20 0 -23 -20 -70 -38 -89 -7 -7 -10 -22 -7 -32
4 -11 2 -19 -4 -19 -6 0 -11 -9 -11 -19 0 -10 -7 -21 -15 -25 -8 -3 -15 -14
-15 -25 0 -11 -6 -22 -12 -25 -10 -5 -10 -7 0 -12 18 -8 15 -28 -8 -44 -12 -9
-20 -26 -20 -43 0 -16 -7 -35 -15 -44 -9 -8 -14 -17 -11 -20 4 -5 43 15 61 32
6 6 53 48 104 94 50 47 102 91 114 100 43 29 -80 -96 -226 -229 -81 -74 -156
-143 -167 -154 -11 -11 -27 -17 -39 -13 -22 5 -29 -7 -11 -18 20 -13 10 -27
-15 -21 -18 5 -25 2 -25 -9 0 -8 5 -15 10 -15 6 0 10 -7 10 -15 0 -18 -12 -19
-28 -3 -9 9 -12 8 -12 -4 0 -9 5 -20 10 -23 17 -10 11 -25 -10 -25 -22 0 -26
-10 -9 -27 8 -8 8 -13 0 -17 -6 -4 -11 -2 -11 3 0 6 -7 11 -15 11 -8 0 -15 -4
-15 -10 0 -5 5 -10 10 -10 6 0 10 -7 10 -16 0 -11 -5 -14 -16 -10 -13 5 -15 2
-11 -16 4 -14 -3 -38 -18 -65 -14 -23 -25 -51 -25 -62 0 -18 6 -21 40 -21 50
0 111 30 250 123 393 263 754 643 1062 1117 42 63 83 129 92 145 10 17 37 66
62 110 332 589 543 1304 529 1796 -5 158 -16 269 -28 269 -5 0 -16 8 -23 18
-12 15 -15 15 -23 2 -12 -17 -17 -7 -24 50 -3 19 -10 62 -17 95 -42 208 -52
252 -71 310 -6 17 -16 51 -23 78 -16 58 -21 63 -40 46 -34 -31 -46 -39 -55
-39 -20 0 -24 -50 -7 -69 11 -12 14 -27 10 -49 -4 -21 -2 -36 9 -46 11 -11 14
-27 10 -56 -3 -22 -1 -52 6 -67 14 -35 39 -369 33 -445 -7 -105 -22 -60 -22
66 0 95 -3 126 -14 136 -11 8 -16 43 -20 123 -6 140 -15 219 -27 232 -5 5 -9
23 -9 40 0 16 -7 39 -15 49 -8 11 -15 32 -15 47 0 15 -4 31 -10 34 -5 3 -10
19 -10 35 0 16 -4 32 -10 35 -5 3 -10 19 -10 36 0 16 -4 29 -10 29 -5 0 -10 8
-10 18 0 9 -7 25 -15 35 -7 11 -11 25 -9 32 3 7 -4 28 -15 46 -12 19 -24 41
-27 49 -23 57 -36 80 -44 80 -6 0 -10 -7 -10 -15 0 -21 -13 -19 -28 6 -7 11
-37 31 -66 44 -30 13 -63 37 -75 54 -12 16 -34 32 -51 36 -17 4 -30 8 -30 10
0 2 15 18 34 37 19 19 38 48 42 64 4 16 12 32 18 36 8 5 7 11 -2 20 -6 6 -12
22 -12 34 0 13 -15 35 -35 53 -19 17 -35 37 -35 45 0 27 -21 62 -43 71 -12 6
-33 32 -46 59 l-24 49 24 18 c26 20 69 25 69 9 0 -6 10 -8 24 -4 20 5 28 0 40
-23 44 -81 77 -91 132 -40 l35 32 -62 75 c-75 89 -246 260 -260 260 -13 0 -64
-50 -71 -70 -5 -13 -8 -13 -23 2 -17 15 -17 19 -2 56 l16 40 -31 30 c-33 33
-49 33 -73 -4 -8 -13 -22 -24 -29 -24 -18 0 -76 -90 -76 -118 0 -21 -1 -21
-35 -5 -19 9 -37 25 -41 35 -3 10 -12 18 -20 18 -8 0 -35 15 -61 34 -60 42
-202 126 -214 126 -13 0 -11 -57 3 -97 6 -18 9 -35 6 -38 -2 -3 -29 17 -58 45
-63 60 -81 65 -154 50 -84 -17 -160 5 -219 63 -30 30 -28 29 -75 16z m18 -39
c0 -5 -4 -10 -10 -10 -5 0 -10 5 -10 10 0 6 5 10 10 10 6 0 10 -4 10 -10z
m915 -246 c8 -4 22 -19 31 -35 13 -25 13 -29 0 -29 -23 0 -70 45 -62 58 8 14
9 14 31 6z m335 -149 c0 -8 -4 -15 -10 -15 -5 0 -10 7 -10 15 0 8 5 15 10 15
6 0 10 -7 10 -15z m-375 -580 c-35 -17 -55 -19 -55 -6 0 13 19 19 55 19 l30 0
-30 -13z m-545 -95 c0 -5 -11 -10 -25 -10 -14 0 -25 5 -25 10 0 6 11 10 25 10
14 0 25 -4 25 -10z m1445 -1307 c-4 -65 -9 -120 -10 -122 -2 -1 -8 0 -14 4
-12 7 -16 191 -5 219 3 9 13 16 21 16 13 0 14 -17 8 -117z m-25 -197 c0 -59
-11 -88 -28 -71 -8 8 -7 109 2 124 17 26 26 7 26 -53z m-20 -135 c0 -31 -5
-53 -15 -61 -11 -9 -13 -23 -9 -49 4 -27 2 -41 -10 -50 -10 -8 -16 -29 -16
-52 0 -22 -4 -39 -10 -39 -5 0 -10 -15 -10 -34 0 -19 -4 -38 -10 -41 -5 -3
-10 -21 -10 -40 0 -21 -6 -35 -16 -39 -11 -4 -14 -13 -10 -30 4 -15 0 -28 -9
-36 -8 -7 -15 -25 -15 -41 0 -16 -4 -29 -10 -29 -5 0 -10 -11 -10 -24 0 -14
-4 -28 -10 -31 -5 -3 -10 -17 -10 -29 0 -13 -7 -29 -15 -36 -8 -7 -15 -23 -15
-36 0 -13 -4 -24 -9 -24 -5 0 -11 -10 -13 -22 -4 -28 -28 -36 -28 -9 0 11 5
23 10 26 6 3 10 14 10 23 0 16 63 191 81 224 5 10 9 29 9 42 0 14 4 27 9 30 5
3 11 18 14 33 5 30 24 87 38 115 5 10 9 31 9 47 0 17 5 33 10 36 6 3 10 26 10
50 0 24 5 47 10 50 6 3 10 26 10 50 0 53 8 75 26 75 10 0 14 -14 14 -49z
m-260 -801 c0 -11 -4 -20 -10 -20 -5 0 -10 9 -10 20 0 11 5 20 10 20 6 0 10
-9 10 -20z m-29 -73 c-6 -6 -11 -19 -11 -29 0 -10 -4 -18 -10 -18 -5 0 -10 -7
-10 -15 0 -8 -4 -23 -9 -33 -5 -9 -17 -33 -26 -52 -21 -46 -97 -184 -110 -201
-6 -8 -17 -27 -25 -44 -20 -41 -63 -109 -72 -113 -5 -2 -8 -8 -8 -12 0 -5 -20
-38 -45 -73 -25 -36 -45 -68 -45 -71 0 -7 -38 -46 -45 -46 -11 0 -4 18 18 40
12 14 27 34 33 45 6 11 21 37 32 58 24 41 46 79 84 147 14 25 35 63 48 85 13
22 44 81 70 130 26 50 62 115 79 145 17 30 36 66 42 80 11 22 13 23 17 6 2
-10 -1 -23 -7 -29z m-421 -730 c0 -8 -13 -26 -30 -40 -16 -15 -30 -33 -30 -40
0 -7 -16 -28 -35 -47 -19 -19 -35 -30 -35 -26 0 8 37 63 55 82 5 6 21 27 35
47 26 38 40 47 40 24z m-169 -220 c-17 -18 -31 -27 -31 -22 0 17 55 76 59 64
2 -6 -11 -25 -28 -42z"/>
<path d="M2995 11142 c-6 -4 -17 -20 -25 -37 -26 -52 -99 -95 -161 -95 -33 0
-47 -6 -75 -34 -19 -19 -34 -42 -34 -52 -1 -18 -1 -18 -15 0 -8 11 -15 29 -15
40 -1 27 -26 60 -39 52 -6 -4 -8 -13 -5 -21 8 -19 -33 -40 -51 -25 -10 8 -18
3 -35 -25 -15 -24 -29 -35 -45 -35 -16 0 -34 -13 -52 -36 -15 -20 -40 -42 -56
-49 -32 -13 -270 -246 -295 -288 -26 -43 -55 -45 -101 -6 -22 19 -40 40 -40
48 -1 7 16 29 36 50 20 20 38 41 39 46 1 6 42 53 90 104 49 51 96 105 105 118
9 14 34 37 56 52 61 41 88 64 96 83 3 10 23 24 43 33 26 11 34 19 30 31 -3 8
-6 20 -6 25 0 5 -7 9 -15 9 -8 0 -15 -6 -15 -13 0 -8 -9 -24 -19 -36 -16 -18
-24 -20 -39 -12 -15 8 -27 4 -61 -20 -22 -17 -41 -34 -41 -38 0 -4 -11 -14
-25 -21 -14 -7 -25 -19 -25 -27 0 -7 -8 -13 -19 -13 -10 0 -31 -10 -46 -22
l-27 -21 7 24 c5 17 -13 3 -61 -47 -220 -226 -390 -464 -500 -699 -57 -123
-58 -125 -51 -132 4 -3 0 -17 -8 -29 -8 -13 -19 -40 -23 -62 -7 -31 -6 -43 9
-61 23 -28 15 -45 -18 -36 -21 5 -24 3 -21 -17 2 -16 19 -31 58 -51 30 -15 60
-25 67 -23 7 3 16 -2 21 -11 10 -18 32 -10 32 12 0 13 36 45 51 45 9 0 -4 -51
-34 -135 -41 -114 -67 -210 -67 -249 0 -29 8 -44 36 -73 34 -33 39 -35 87 -30
l51 4 -37 -29 c-31 -25 -37 -36 -37 -67 0 -25 -11 -54 -35 -91 -19 -30 -38
-63 -41 -73 -4 -12 -12 -16 -24 -12 -16 5 -19 -2 -26 -52 -10 -81 2 -321 21
-428 9 -49 18 -112 21 -139 2 -27 8 -64 14 -82 6 -19 8 -39 4 -45 -10 -17 -33
29 -34 69 0 18 -8 47 -17 65 -10 18 -20 57 -23 87 l-5 55 -42 6 c-24 3 -46 8
-49 12 -4 4 -13 2 -21 -5 -10 -8 -12 -28 -7 -85 7 -73 7 -73 -17 -71 -22 3
-25 -1 -32 -62 -14 -114 -13 -129 15 -270 16 -84 100 -363 127 -425 5 -11 17
-41 28 -67 14 -37 22 -46 36 -42 15 5 17 1 11 -34 -7 -42 3 -56 40 -57 13 0
22 -9 26 -25 6 -26 11 -28 48 -15 24 8 27 16 13 43 -4 9 -14 33 -21 52 -36
102 -53 147 -63 169 -7 13 -10 33 -9 44 2 11 -1 23 -8 27 -16 10 -32 88 -25
121 5 22 3 27 -12 25 -30 -2 -20 21 20 48 21 14 42 26 46 26 5 0 14 -15 21
-32 6 -18 17 -46 24 -63 8 -16 22 -49 32 -73 14 -34 22 -42 37 -38 15 4 18 1
13 -15 -20 -65 -20 -62 2 -57 17 5 22 2 22 -13 0 -11 4 -27 9 -37 5 -9 17 -35
27 -57 35 -80 83 -174 184 -355 56 -102 118 -214 138 -250 56 -103 75 -130
242 -355 181 -244 214 -279 494 -520 32 -27 64 -56 71 -62 19 -18 30 -16 15 2
-6 8 -9 19 -5 25 3 5 1 10 -4 10 -6 0 -11 11 -11 23 0 13 -9 35 -21 48 -11 13
-18 32 -15 42 5 22 -13 68 -31 80 -7 4 -10 14 -7 22 4 8 1 15 -5 15 -6 0 -11
7 -11 15 0 18 -32 89 -42 93 -5 2 -8 15 -8 28 0 13 -4 24 -10 24 -5 0 -10 9
-10 20 0 11 -4 20 -9 20 -6 0 -13 20 -17 45 -3 25 -10 45 -14 45 -4 0 -7 14
-8 31 0 18 -6 37 -11 42 -6 6 -11 24 -11 39 0 15 -3 28 -7 28 -5 0 -17 29 -28
65 -10 36 -22 65 -25 65 -3 0 -6 10 -7 22 -1 11 -8 25 -15 30 -10 8 -10 11 0
15 14 6 16 33 2 33 -5 0 -10 13 -10 29 0 16 -4 31 -10 33 -5 2 -16 41 -24 88
-8 46 -19 86 -25 88 -6 2 -11 28 -11 58 0 30 -4 54 -10 54 -6 0 -10 30 -10 69
0 39 -5 71 -10 73 -15 5 -15 529 0 538 7 4 10 40 9 100 -2 64 1 95 9 98 7 2
12 26 12 62 0 33 5 64 13 72 6 7 13 39 14 72 2 32 7 64 12 70 4 6 11 34 14 61
11 99 20 140 34 153 12 12 19 59 15 105 -1 9 2 17 7 17 5 0 11 27 15 60 4 33
13 66 21 74 8 8 15 33 15 55 0 23 5 41 10 41 6 0 10 22 10 49 0 27 5 51 11 53
6 2 11 20 12 41 0 20 4 37 7 37 13 0 31 52 25 71 -4 11 -2 19 4 19 6 0 11 14
11 31 0 17 6 37 14 45 8 7 12 23 9 34 -3 12 1 22 11 26 10 4 16 18 16 35 0 16
5 29 10 29 6 0 10 16 10 35 0 19 5 35 10 35 6 0 10 7 10 15 0 8 -4 15 -10 15
-5 0 -10 5 -10 10 0 6 7 10 15 10 8 0 15 9 15 20 0 11 5 20 10 20 7 0 8 13 4
35 -4 21 -2 35 4 35 13 0 33 57 26 75 -4 9 0 15 8 15 10 0 18 21 27 66 6 37
19 73 27 81 8 9 12 23 9 34 -4 11 -2 19 4 19 6 0 11 11 11 25 0 14 5 25 10 25
6 0 10 9 10 19 0 11 6 21 13 24 9 3 9 10 -3 31 -12 23 -12 29 -1 36 15 9 41
74 41 103 0 9 4 17 9 17 6 0 13 20 17 45 3 25 10 45 15 45 5 0 9 9 9 19 0 11
5 23 11 27 6 3 9 19 5 35 -3 16 -1 29 4 29 6 0 10 9 10 20 0 11 6 20 13 20 13
0 16 14 21 98 0 12 4 22 9 22 4 0 7 9 7 20 0 11 4 20 9 20 6 0 9 10 9 23 -3
50 3 86 15 99 13 13 19 30 37 113 4 22 11 50 15 62 6 18 1 24 -31 39 -55 23
-212 64 -248 64 -17 0 -36 -4 -41 -8z m-1020 -634 c46 -23 53 -35 35 -69 -14
-25 -36 -24 -70 4 -15 12 -35 27 -44 32 -15 9 -15 12 -1 33 20 27 24 27 80 0z
m-74 -95 c37 -17 53 -43 26 -43 -13 0 -87 47 -87 55 0 10 24 5 61 -12z m-16
-93 c3 -6 -1 -7 -9 -4 -18 7 -21 14 -7 14 6 0 13 -4 16 -10z m15 -100 c0 -5
-4 -10 -10 -10 -5 0 -10 5 -10 10 0 6 5 10 10 10 6 0 10 -4 10 -10z m-37 -59
c-5 -3 -15 -21 -22 -38 -14 -34 -31 -44 -31 -18 0 8 5 15 10 15 6 0 10 5 10
10 0 19 34 63 38 50 3 -7 0 -15 -5 -19z m-62 -114 c-8 -8 -11 -7 -11 4 0 20
13 34 18 19 3 -7 -1 -17 -7 -23z m-11 -25 c0 -13 -12 -22 -22 -16 -10 6 -1 24
13 24 5 0 9 -4 9 -8z m-39 -65 c-8 -8 -11 -7 -11 4 0 20 13 34 18 19 3 -7 -1
-17 -7 -23z m-11 -26 c0 -6 -4 -13 -10 -16 -5 -3 -10 1 -10 9 0 9 5 16 10 16
6 0 10 -4 10 -9z m-30 -50 c0 -5 -6 -14 -14 -20 -16 -13 -32 2 -21 19 8 12 35
13 35 1z m-110 -76 c0 -8 -4 -15 -10 -15 -5 0 -10 7 -10 15 0 8 5 15 10 15 6
0 10 -7 10 -15z m23 -1560 c4 -8 2 -17 -3 -20 -6 -4 -10 3 -10 14 0 25 6 27
13 6z m-3 -135 c0 -11 -69 -42 -83 -37 -12 4 53 47 71 47 6 0 12 -4 12 -10z
m47 -42 c-3 -8 -6 -5 -6 6 -1 11 2 17 5 13 3 -3 4 -12 1 -19z m3 -568 c0 -5
-4 -10 -10 -10 -5 0 -10 5 -10 10 0 6 5 10 10 10 6 0 10 -4 10 -10z"/>
<path d="M16616 11104 c-8 -21 -8 -24 4 -24 5 0 14 9 20 20 8 16 8 20 -4 20
-7 0 -17 -7 -20 -16z"/>
<path d="M16672 11038 c-29 -55 -29 -80 -1 -76 27 4 84 81 76 102 -13 32 -51
18 -75 -26z"/>
<path d="M13200 11010 c0 -5 5 -10 11 -10 5 0 7 5 4 10 -3 6 -8 10 -11 10 -2
0 -4 -4 -4 -10z"/>
<path d="M13150 10986 c0 -9 5 -16 10 -16 6 0 10 4 10 9 0 6 -4 13 -10 16 -5
3 -10 -1 -10 -9z"/>
<path d="M6005 10960 c3 -5 10 -10 16 -10 5 0 9 5 9 10 0 6 -7 10 -16 10 -8 0
-12 -4 -9 -10z"/>
<path d="M13105 10960 c3 -5 8 -10 11 -10 2 0 4 5 4 10 0 6 -5 10 -11 10 -5 0
-7 -4 -4 -10z"/>
<path d="M6050 10940 c0 -5 5 -10 10 -10 6 0 10 5 10 10 0 6 -4 10 -10 10 -5
0 -10 -4 -10 -10z"/>
<path d="M6090 10925 c0 -10 43 -44 58 -45 6 0 12 -4 12 -10 0 -5 5 -10 10
-10 6 0 29 -11 51 -26 47 -29 103 -61 141 -81 15 -8 30 -18 33 -24 8 -12 35
-12 35 1 0 5 -11 12 -24 16 -14 3 -32 14 -42 25 -9 10 -25 19 -36 19 -10 0
-18 3 -18 8 0 8 -37 31 -129 79 -36 18 -70 38 -78 44 -7 6 -13 8 -13 4z"/>
<path d="M7741 10914 c0 -11 3 -14 6 -6 3 7 2 16 -1 19 -3 4 -6 -2 -5 -13z"/>
<path d="M12995 10890 c3 -5 8 -10 11 -10 2 0 4 5 4 10 0 6 -5 10 -11 10 -5 0
-7 -4 -4 -10z"/>
<path d="M7760 10876 c0 -8 5 -18 10 -21 6 -3 10 1 10 9 0 8 -4 18 -10 21 -5
3 -10 -1 -10 -9z"/>
<path d="M12946 10882 c-3 -6 -1 -14 5 -17 15 -10 25 3 12 16 -7 7 -13 7 -17
1z"/>
<path d="M6484 10846 c-4 -11 -15 -33 -25 -48 -23 -32 -23 -34 -4 -42 10 -3
25 10 45 39 35 51 37 61 10 68 -14 3 -21 -1 -26 -17z"/>
<path d="M7780 10832 c0 -19 34 -75 38 -63 2 7 -1 18 -7 24 -6 6 -11 19 -11
29 0 10 -4 18 -10 18 -5 0 -10 -4 -10 -8z"/>
<path d="M12836 10811 c-4 -7 -5 -15 -2 -18 9 -9 19 4 14 18 -4 11 -6 11 -12
0z"/>
<path d="M6563 10798 c-32 -51 -40 -78 -22 -78 19 0 59 53 59 79 0 15 -27 14
-37 -1z"/>
<path d="M12760 10754 c0 -9 5 -14 12 -12 18 6 21 28 4 28 -9 0 -16 -7 -16
-16z"/>
<path d="M6630 10742 c0 -11 -9 -27 -20 -37 -38 -34 -20 -85 30 -85 17 1 34
12 53 37 37 49 35 71 -8 89 -45 18 -55 18 -55 -4z"/>
<path d="M6460 10690 c0 -5 5 -10 11 -10 5 0 7 5 4 10 -3 6 -8 10 -11 10 -2 0
-4 -4 -4 -10z"/>
<path d="M12680 10690 c0 -5 5 -10 10 -10 6 0 10 5 10 10 0 6 -4 10 -10 10 -5
0 -10 -4 -10 -10z"/>
<path d="M7870 10680 c0 -5 5 -10 10 -10 6 0 10 5 10 10 0 6 -4 10 -10 10 -5
0 -10 -4 -10 -10z"/>
<path d="M12604 10639 c-19 -22 -19 -22 4 -10 12 6 22 16 22 21 0 15 -5 12
-26 -11z"/>
<path d="M7901 10634 c0 -11 3 -14 6 -6 3 7 2 16 -1 19 -3 4 -6 -2 -5 -13z"/>
<path d="M6560 10623 c0 -5 12 -16 25 -26 21 -15 25 -16 25 -3 0 8 -9 20 -19
26 -23 12 -31 13 -31 3z"/>
<path d="M7921 10584 c0 -11 3 -14 6 -6 3 7 2 16 -1 19 -3 4 -6 -2 -5 -13z"/>
<path d="M17335 10593 c-11 -2 -31 -12 -45 -23 -21 -16 -23 -21 -12 -44 18
-40 56 -30 101 27 11 14 11 20 1 32 -7 8 -15 14 -19 14 -3 -1 -15 -4 -26 -6z"/>
<path d="M12475 10540 c-16 -16 -26 -33 -22 -36 8 -9 66 38 66 54 1 20 -13 14
-44 -18z"/>
<path d="M17373 10482 c-34 -16 -45 -42 -19 -42 20 0 72 45 60 52 -5 3 -24 -1
-41 -10z"/>
<path d="M8017 10443 c-4 -3 -7 -11 -7 -17 0 -6 5 -5 12 2 6 6 9 14 7 17 -3 3
-9 2 -12 -2z"/>
<path d="M11086 10351 c-4 -7 -5 -15 -2 -18 9 -9 19 4 14 18 -4 11 -6 11 -12
0z"/>
<path d="M8061 10324 c0 -11 3 -14 6 -6 3 7 2 16 -1 19 -3 4 -6 -2 -5 -13z"/>
<path d="M11060 10300 c0 -5 5 -10 10 -10 6 0 10 5 10 10 0 6 -4 10 -10 10 -5
0 -10 -4 -10 -10z"/>
<path d="M11040 10254 c0 -8 5 -12 10 -9 6 4 8 11 5 16 -9 14 -15 11 -15 -7z"/>
<path d="M11005 10205 c-10 -22 -23 -43 -28 -46 -5 -4 -7 -15 -4 -25 4 -17 6
-17 12 4 4 12 11 22 16 22 5 0 9 9 9 19 0 11 5 21 11 23 6 2 9 13 7 23 -3 16
-8 12 -23 -20z"/>
<path d="M8157 10223 c-4 -3 -7 -20 -7 -37 l1 -31 14 34 c8 18 15 35 15 37 0
6 -16 5 -23 -3z"/>
<path d="M8170 10129 c0 -5 5 -7 10 -4 6 3 10 8 10 11 0 2 -4 4 -10 4 -5 0
-10 -5 -10 -11z"/>
<path d="M7325 10060 c3 -5 10 -10 16 -10 5 0 9 5 9 10 0 6 -7 10 -16 10 -8 0
-12 -4 -9 -10z"/>
<path d="M8260 9946 c0 -9 5 -16 10 -16 6 0 10 4 10 9 0 6 -4 13 -10 16 -5 3
-10 -1 -10 -9z"/>
<path d="M1427 9759 c14 -14 111 -48 118 -41 9 9 5 33 -4 27 -5 -3 -29 1 -53
10 -53 18 -77 20 -61 4z"/>
<path d="M7728 9744 c-43 -28 -47 -43 -18 -69 26 -23 64 -12 93 27 20 27 20
28 2 48 -23 25 -31 25 -77 -6z"/>
<path d="M7830 9656 c-6 -8 -21 -16 -33 -18 -30 -4 -32 -31 -5 -63 l23 -26 34
23 c50 34 59 53 37 77 -22 25 -39 26 -56 7z"/>
<path d="M7910 9540 c0 -5 -6 -10 -14 -10 -7 0 -19 -7 -26 -15 -19 -22 9 -19
38 4 24 21 28 31 12 31 -5 0 -10 -4 -10 -10z"/>
<path d="M8367 9253 c-24 -6 -59 -41 -48 -47 11 -7 74 26 79 42 4 12 0 13 -31
5z"/>
<path d="M8430 9055 c-7 -8 -19 -15 -26 -15 -8 0 -14 -8 -14 -19 0 -23 25 -47
35 -31 3 5 15 10 26 10 10 0 19 5 19 10 0 6 7 10 15 10 16 0 19 9 9 34 -8 20
-48 21 -64 1z"/>
<path d="M8510 8960 c0 -5 5 -10 10 -10 6 0 10 5 10 10 0 6 -4 10 -10 10 -5 0
-10 -4 -10 -10z"/>
<path d="M8470 8945 c0 -8 4 -15 9 -15 5 0 11 7 15 15 3 9 0 15 -9 15 -8 0
-15 -7 -15 -15z"/>
<path d="M8493 8894 c-3 -8 -11 -14 -19 -14 -8 0 -14 -7 -14 -15 0 -13 28 -92
50 -140 5 -11 14 -37 21 -57 12 -35 29 -51 29 -28 0 6 6 10 13 10 17 0 77 29
77 38 0 3 -9 24 -19 46 -10 23 -27 59 -36 81 -31 75 -43 90 -70 92 -15 1 -28
-4 -32 -13z m59 -76 c-7 -7 -12 -8 -12 -2 0 14 12 26 19 19 2 -3 -1 -11 -7
-17z m-32 -13 c0 -8 -4 -15 -10 -15 -5 0 -10 7 -10 15 0 8 5 15 10 15 6 0 10
-7 10 -15z"/>
<path d="M10826 8754 c-9 -24 -8 -26 14 -14 11 6 18 15 15 21 -9 14 -22 11
-29 -7z"/>
<path d="M10820 8610 c0 -5 7 -10 16 -10 8 0 12 5 9 10 -3 6 -10 10 -16 10 -5
0 -9 -4 -9 -10z"/>
<path d="M1341 8444 c0 -11 3 -14 6 -6 3 7 2 16 -1 19 -3 4 -6 -2 -5 -13z"/>
<path d="M8350 8381 c0 -11 5 -23 10 -26 6 -3 10 3 10 14 0 11 -4 23 -10 26
-5 3 -10 -3 -10 -14z"/>
<path d="M10810 8351 c0 -6 5 -13 10 -16 6 -3 10 1 10 9 0 9 -4 16 -10 16 -5
0 -10 -4 -10 -9z"/>
<path d="M5425 8343 c-16 -2 -84 -8 -150 -13 -171 -13 -241 -26 -425 -73 -105
-27 -345 -103 -372 -118 -10 -5 -27 -9 -37 -9 -11 0 -23 -4 -26 -10 -3 -5 -14
-10 -24 -10 -10 0 -24 -7 -31 -15 -7 -8 -16 -13 -20 -10 -4 3 -13 -2 -20 -10
-7 -8 -21 -15 -31 -15 -11 0 -19 -4 -19 -10 0 -5 -7 -10 -16 -10 -18 0 -262
-162 -354 -235 -82 -64 -271 -269 -300 -324 -7 -14 -21 -34 -31 -45 -11 -11
-19 -24 -19 -30 0 -5 -8 -19 -19 -30 -10 -12 -32 -46 -48 -76 -26 -47 -43 -80
-104 -202 -5 -10 -9 -24 -9 -32 0 -7 -6 -19 -14 -26 -8 -6 -13 -17 -10 -24 3
-8 -2 -20 -10 -29 -9 -9 -16 -25 -16 -36 0 -11 -4 -23 -10 -26 -5 -3 -10 -19
-10 -36 0 -33 -16 -38 -36 -11 -12 15 -13 15 -14 1 0 -9 7 -22 15 -29 17 -14
20 -56 6 -65 -6 -3 -15 4 -22 16 -9 17 -13 19 -20 8 -6 -9 -4 -18 6 -25 19
-14 27 -56 15 -74 -9 -13 -12 -13 -24 3 -16 21 -26 22 -26 2 0 -9 7 -18 15
-21 10 -4 15 -20 15 -45 0 -44 -10 -49 -33 -16 l-16 22 0 -26 c-1 -16 6 -29
15 -33 11 -4 14 -17 12 -43 -4 -48 -19 -49 -31 -3 -8 31 -10 32 -18 15 -13
-33 -10 -54 11 -72 20 -17 27 -64 14 -97 -9 -23 -24 -9 -24 22 0 15 -3 38 -7
50 -9 34 -23 7 -23 -45 0 -23 -4 -45 -10 -48 -5 -3 -10 -42 -10 -86 0 -62 3
-81 15 -85 22 -9 21 -203 0 -244 -9 -17 -20 -30 -26 -30 -9 0 -89 59 -109 80
-3 3 -25 21 -50 40 -51 39 -90 77 -90 89 0 4 -20 18 -44 31 -24 12 -75 51
-114 86 -38 34 -81 66 -95 69 -29 8 -97 -11 -97 -26 0 -13 227 -248 270 -280
19 -14 51 -44 71 -66 20 -22 55 -51 78 -63 51 -29 58 -51 31 -95 -33 -54 -4
-46 34 9 20 29 50 14 42 -22 -11 -48 -11 -55 1 -59 7 -3 17 7 23 21 5 14 16
26 25 26 17 0 20 -31 4 -47 -14 -14 -2 -53 17 -53 8 0 19 11 24 25 5 14 13 25
18 25 18 0 21 -14 8 -36 -19 -28 -16 -66 6 -72 9 -2 20 -12 23 -22 7 -23 48
-40 97 -40 33 0 46 6 73 34 35 38 50 87 35 116 -9 16 -6 96 6 195 3 22 9 87
14 145 33 387 126 746 261 1010 27 52 55 104 62 115 187 299 410 506 703 653
279 140 539 210 934 253 159 18 631 18 740 1 258 -41 387 -78 622 -181 64 -28
123 -51 130 -51 7 0 24 16 37 35 13 19 27 35 32 35 18 0 20 -23 4 -56 -9 -20
-14 -38 -11 -41 11 -11 37 7 46 32 10 26 24 32 35 16 3 -5 18 -12 34 -16 16
-3 39 -17 51 -31 13 -13 29 -24 36 -24 15 0 70 -44 197 -157 51 -46 95 -83 98
-83 3 0 12 15 21 33 22 46 8 72 -95 178 -125 129 -289 242 -507 349 -232 115
-208 105 -370 150 -25 7 -56 16 -70 20 -35 11 -163 27 -310 40 -69 5 -176 15
-239 20 -101 10 -335 11 -416 3z m-2261 -2008 c8 -39 -2 -105 -14 -105 -11 0
-24 105 -16 125 9 26 23 17 30 -20z"/>
<path d="M8894 7549 c-3 -6 -1 -16 5 -22 8 -8 11 -5 11 11 0 24 -5 28 -16 11z"/>
<path d="M1710 7421 c0 -6 5 -13 10 -16 6 -3 10 1 10 9 0 9 -4 16 -10 16 -5 0
-10 -4 -10 -9z"/>
<path d="M1680 7406 c0 -9 5 -16 10 -16 6 0 10 4 10 9 0 6 -4 13 -10 16 -5 3
-10 -1 -10 -9z"/>
<path d="M1695 7371 c-2 -4 -1 -12 3 -18 5 -8 14 -6 29 7 l22 18 -25 0 c-13 0
-26 -4 -29 -7z"/>
<path d="M15776 7102 c-3 -6 2 -18 11 -28 12 -12 18 -13 21 -4 6 16 -24 45
-32 32z"/>
<path d="M7748 7036 c-26 -19 -22 -26 7 -13 14 7 25 15 25 20 0 11 -13 8 -32
-7z"/>
<path d="M15597 7019 c-42 -35 -48 -59 -14 -59 32 0 87 28 87 44 0 7 -8 20
-18 29 -17 15 -21 14 -55 -14z"/>
<path d="M15820 6990 c0 -13 10 -38 21 -57 18 -28 20 -39 10 -59 -6 -13 -16
-24 -23 -24 -7 0 -26 -7 -42 -15 -27 -14 -30 -14 -45 7 -9 13 -22 41 -29 63
-8 22 -18 44 -22 48 -11 12 -46 0 -75 -27 -27 -25 -30 -37 -15 -64 11 -20 64
-183 74 -229 4 -18 12 -35 17 -38 5 -4 9 -21 9 -39 0 -19 9 -43 20 -56 11 -13
20 -27 20 -32 0 -4 7 -8 15 -8 11 0 15 -12 15 -47 0 -35 3 -44 10 -33 7 11 12
12 18 3 4 -6 16 -11 27 -10 15 2 22 -7 28 -38 5 -22 15 -61 23 -87 8 -26 14
-60 14 -77 0 -62 23 -78 62 -42 11 11 26 17 34 14 10 -4 14 3 14 22 0 15 -4
24 -10 20 -21 -13 -32 7 -14 26 14 16 16 34 12 113 -5 86 -3 95 13 99 13 3 19
14 19 32 0 22 -4 26 -20 22 -28 -7 -33 7 -19 48 11 30 10 37 -4 53 -9 10 -17
28 -17 39 0 12 -12 65 -26 119 -15 55 -29 109 -31 122 -3 12 -9 25 -14 28 -5
3 -9 14 -9 25 0 10 -5 29 -12 42 -6 12 -14 28 -18 36 -11 24 -30 24 -30 1z"/>
<path d="M9110 6611 c0 -13 73 -81 87 -81 29 0 10 29 -37 58 -27 17 -50 27
-50 23z"/>
<path d="M10520 6605 c0 -8 4 -15 9 -15 5 0 24 -14 41 -30 22 -20 36 -28 43
-21 15 15 1 39 -35 61 -39 24 -58 25 -58 5z"/>
<path d="M2380 6443 c0 -5 18 -28 40 -53 l39 -45 30 29 c34 33 41 52 14 41
-39 -16 -74 -12 -92 12 -19 23 -31 30 -31 16z"/>
<path d="M12066 6411 c-4 -7 -5 -15 -2 -18 9 -9 19 4 14 18 -4 11 -6 11 -12 0z"/>
<path d="M16027 6383 c-11 -10 -8 -71 3 -78 6 -4 10 12 10 39 0 47 -2 51 -13
39z"/>
<path d="M7185 6310 c3 -5 8 -10 11 -10 2 0 4 5 4 10 0 6 -5 10 -11 10 -5 0
-7 -4 -4 -10z"/>
<path d="M7097 6250 c-15 -16 -23 -30 -19 -30 12 0 56 49 50 55 -2 3 -17 -8
-31 -25z"/>
<path d="M3091 6120 c-2 -30 -5 -74 -7 -98 -4 -32 -1 -44 11 -48 9 -4 17 -5
19 -3 2 2 -3 49 -9 104 -11 88 -13 94 -14 45z"/>
<path d="M10600 6014 c0 -8 5 -12 10 -9 6 3 10 10 10 16 0 5 -4 9 -10 9 -5 0
-10 -7 -10 -16z"/>
<path d="M16082 6000 c0 -14 2 -19 5 -12 2 6 2 18 0 25 -3 6 -5 1 -5 -13z"/>
<path d="M6587 5683 c-4 -3 -7 -12 -7 -19 0 -10 7 -11 30 -2 17 5 33 14 36 19
6 10 -49 12 -59 2z"/>
<path d="M15840 5672 c-53 -18 -54 -18 -46 -31 9 -14 60 3 87 28 26 24 21 24
-41 3z"/>
<path d="M6295 5304 c-11 -3 -50 -19 -87 -36 -53 -25 -65 -34 -57 -45 9 -10 7
-13 -9 -13 -13 0 -19 -6 -18 -17 2 -27 14 -30 99 -24 43 3 82 4 86 1 9 -6 7
-92 -3 -108 -10 -17 7 -21 104 -24 l85 -3 6 40 c3 22 9 49 12 61 5 14 2 26 -7
33 -8 7 -18 37 -21 66 -6 48 -10 55 -38 64 -29 11 -112 13 -152 5z"/>
<path d="M12689 5301 c-40 -9 -97 -64 -95 -92 1 -20 8 -25 48 -30 68 -10 70
-13 66 -83 -2 -44 0 -61 10 -60 6 1 56 2 110 3 l97 1 18 56 c20 60 14 80 -26
86 -18 2 -24 13 -31 55 -7 39 -15 54 -33 62 -25 12 -120 13 -164 2z"/>
<path d="M11530 5160 c0 -5 5 -10 10 -10 6 0 10 5 10 10 0 6 -4 10 -10 10 -5
0 -10 -4 -10 -10z"/>
<path d="M12390 5110 c0 -5 -12 -9 -27 -9 -67 2 -92 -18 -168 -136 -53 -81
-95 -178 -95 -218 0 -12 9 -30 20 -40 11 -9 20 -23 20 -31 0 -17 -38 -28 -43
-12 -2 6 -8 8 -12 4 -11 -10 14 -38 42 -49 28 -11 54 -60 35 -67 -20 -6 -14
-32 8 -32 13 0 20 7 20 20 0 23 20 26 39 8 10 -11 16 -9 31 10 21 26 30 28 30
7 0 -33 17 -12 34 43 10 31 38 96 63 144 38 74 58 99 124 158 44 38 76 70 72
70 -4 0 -19 -10 -33 -21 -14 -11 -44 -33 -68 -50 -47 -34 -46 -34 -116 24
l-30 24 48 61 c36 45 46 66 41 81 -6 21 -35 30 -35 11z"/>
<path d="M13373 5005 c-15 -19 -35 -35 -45 -35 -9 0 -26 -12 -38 -27 l-21 -28
16 33 c15 32 13 72 -5 72 -5 0 -15 3 -23 6 -11 4 -23 -10 -40 -45 l-26 -50 32
-20 c18 -11 37 -29 44 -40 7 -10 28 -32 48 -47 l36 -27 22 22 c13 11 32 21 43
21 11 0 25 5 31 11 9 9 16 3 29 -25 22 -46 52 -48 88 -5 39 46 31 69 -26 69
-15 0 -18 4 -13 18 3 9 7 20 8 24 4 13 -96 108 -114 108 -10 0 -31 -16 -46
-35z"/>
<path d="M5809 5004 c-8 -10 -21 -13 -36 -9 -13 3 -32 1 -43 -5 -17 -9 -19 -8
-13 7 10 30 -76 -57 -136 -137 -99 -132 -171 -310 -126 -310 9 0 27 -12 40
-26 19 -20 22 -33 18 -60 -5 -32 -3 -35 30 -49 20 -8 38 -15 40 -15 3 0 7 19
11 41 4 23 31 83 61 133 30 51 55 97 55 104 0 7 5 12 10 12 6 0 14 10 19 23 7
19 4 25 -26 40 -18 10 -31 22 -27 28 7 12 45 2 60 -17 10 -12 13 -12 24 1 9
10 9 15 1 15 -6 0 -11 7 -11 15 0 7 -7 18 -16 23 -24 13 -12 51 31 95 19 20
35 45 35 56 0 11 9 22 20 26 11 3 20 11 20 16 0 15 -26 10 -41 -7z"/>
<path d="M12605 5000 c-3 -5 1 -10 9 -10 9 0 16 5 16 10 0 6 -4 10 -9 10 -6 0
-13 -4 -16 -10z"/>
<path d="M6890 4925 c-10 -12 -10 -15 3 -15 8 0 20 7 27 15 10 12 10 15 -3 15
-8 0 -20 -7 -27 -15z"/>
<path d="M11843 4718 c-25 -12 -31 -28 -10 -28 14 1 47 24 47 34 0 8 -11 7
-37 -6z"/>
<path d="M11876 4647 c-30 -24 -29 -51 2 -40 25 9 52 34 52 50 0 20 -21 16
-54 -10z"/>
<path d="M12072 4410 c0 -14 2 -19 5 -12 2 6 2 18 0 25 -3 6 -5 1 -5 -13z"/>
<path d="M5477 4024 c-4 -4 -7 -23 -7 -41 0 -46 -16 -73 -44 -73 -19 0 -25 -8
-36 -54 -14 -59 -7 -103 31 -193 16 -37 22 -43 49 -43 17 0 40 6 53 13 12 6
23 12 24 13 2 0 -1 14 -6 31 -10 34 14 83 36 76 24 -9 43 23 34 54 -5 15 -17
70 -26 121 -17 90 -18 92 -45 92 -16 0 -35 2 -42 5 -8 3 -17 2 -21 -1z"/>
<path d="M11390 3895 c0 -11 73 -105 81 -105 5 0 26 15 47 34 36 34 37 34 18
55 -20 22 -51 28 -61 11 -3 -5 -17 -10 -30 -10 -13 0 -27 5 -30 10 -6 10 -25
14 -25 5z"/>
<path d="M9113 2428 c-27 -13 -28 -21 -8 -52 14 -22 14 -25 0 -40 -27 -26 -10
-55 28 -51 79 8 93 25 58 74 -10 14 -21 37 -22 51 -4 28 -23 34 -56 18z"/>
<path d="M9170 2262 c-20 -16 -21 -19 -6 -31 19 -16 20 -34 4 -60 -27 -43 34
-60 88 -24 l22 14 -26 59 c-29 65 -44 73 -82 42z"/>
<path d="M9254 2108 c-21 -10 -21 -11 -4 -55 9 -25 23 -49 30 -53 11 -7 10
-13 -4 -34 -9 -15 -15 -30 -12 -34 10 -16 106 7 106 26 0 4 -7 18 -16 30 -11
16 -22 21 -35 17 -11 -4 -19 -2 -19 4 0 6 7 11 15 11 19 0 19 24 1 42 -8 8
-15 23 -17 33 -5 23 -18 27 -45 13z m36 -39 c0 -5 -7 -9 -15 -9 -15 0 -20 12
-9 23 8 8 24 -1 24 -14z"/>
<path d="M9342 1908 c-12 -6 -21 -14 -19 -17 2 -3 11 -23 20 -43 19 -42 40
-51 35 -15 -2 12 -9 21 -17 19 -9 -2 -11 3 -7 13 3 9 6 19 6 22 0 3 7 -1 16
-8 14 -11 15 -10 12 11 -4 28 -15 32 -46 18z"/>
<path d="M9390 1846 c0 -17 14 -29 23 -20 8 8 -3 34 -14 34 -5 0 -9 -6 -9 -14z"/>
<path d="M9393 1800 c-25 -10 -27 -18 -14 -38 7 -12 12 -12 30 -1 11 8 21 22
21 31 0 20 -5 21 -37 8z"/>
<path d="M9399 1723 c-14 -37 -11 -43 16 -43 14 0 25 5 25 10 0 6 7 10 16 10
10 0 14 7 12 23 -5 33 -56 33 -69 0z"/>
<path d="M9470 1585 c0 -8 5 -15 10 -15 6 0 10 7 10 15 0 8 -4 15 -10 15 -5 0
-10 -7 -10 -15z"/>
<path d="M9513 1553 c-13 -2 -23 -11 -23 -20 0 -8 5 -12 13 -9 6 3 20 9 30 12
16 6 25 25 10 23 -5 -1 -18 -4 -30 -6z"/>
</g>
</svg>
