<svg
  width="298.86"
  height="75.651"
  viewBox="0 0 298.86 75.651"
  xmlns="http://www.w3.org/2000/svg"
>
  <g
    id="svgGroup"
    stroke-linecap="round"
    fill-rule="evenodd"
    font-size="9pt"
    stroke="#000"
    stroke-width="0.25mm"
    fill="none"
    style="stroke: #000; stroke-width: 0.25mm; fill: none"
  >
    <path
      d="M 114.75 32.101 L 109.65 56.176 L 98.85 56.176 L 106.8 18.676 L 117.6 18.676 L 116.775 22.576 Q 120.525 18.376 125.55 18.376 A 11.277 11.277 0 0 1 128.096 18.647 Q 130.135 19.119 131.558 20.413 A 7.245 7.245 0 0 1 131.625 20.476 A 6.571 6.571 0 0 1 133.373 23.295 Q 133.875 24.83 133.875 26.851 A 21.327 21.327 0 0 1 133.744 29.148 Q 133.613 30.357 133.35 31.688 A 86.707 86.707 0 0 1 132.893 33.849 Q 132.677 34.817 132.416 35.899 A 179.885 179.885 0 0 1 131.85 38.176 Q 131.25 40.501 130.763 42.713 Q 130.324 44.706 130.28 45.938 A 7.428 7.428 0 0 0 130.275 46.201 A 5.364 5.364 0 0 0 130.346 47.102 Q 130.494 47.968 130.95 48.526 A 1.985 1.985 0 0 0 131.762 49.104 Q 132.101 49.241 132.53 49.302 A 5.309 5.309 0 0 0 133.275 49.351 A 5.068 5.068 0 0 0 134.984 49.074 A 4.33 4.33 0 0 0 136.875 47.738 Q 138.095 46.282 139.314 43.387 A 37.793 37.793 0 0 0 139.575 42.751 A 49.516 49.516 0 0 0 139.522 43.022 Q 138.975 45.836 138.975 47.626 A 15.933 15.933 0 0 0 139.051 49.216 Q 139.385 52.543 141.188 54.376 Q 143.4 56.626 147 56.626 Q 149.325 56.626 151.575 55.726 A 8.812 8.812 0 0 0 152.451 55.317 Q 153.412 54.804 154.359 54.015 A 16.432 16.432 0 0 0 156 52.426 L 155.1 56.476 A 43.031 43.031 0 0 0 154.058 56.828 Q 151.84 57.61 149.972 58.552 A 24.296 24.296 0 0 0 146.325 60.788 A 10.664 10.664 0 0 0 146.103 60.959 Q 144.466 62.256 143.659 63.959 A 8.515 8.515 0 0 0 142.875 67.651 A 9.026 9.026 0 0 0 142.974 69.015 A 6.085 6.085 0 0 0 145.275 73.051 A 8.53 8.53 0 0 0 148.476 74.598 A 11.394 11.394 0 0 0 151.275 74.926 Q 155.925 74.926 159.6 72.188 A 8.559 8.559 0 0 0 159.741 72.081 Q 162.282 70.105 163.76 65.909 A 28.749 28.749 0 0 0 164.775 62.176 L 165.9 56.776 Q 170.25 55.651 173.7 52.538 Q 177.15 49.426 179.175 42.751 L 176.025 42.751 Q 175.088 45.704 173.887 47.749 A 12.838 12.838 0 0 1 172.35 49.876 A 11.919 11.919 0 0 1 169.637 52.087 A 15.333 15.333 0 0 1 166.575 53.476 L 174 18.676 L 163.2 18.676 L 157.95 43.201 Q 157.493 44.61 156.882 45.739 A 10.189 10.189 0 0 1 155.55 47.663 A 6.118 6.118 0 0 1 154.873 48.321 A 4.253 4.253 0 0 1 152.1 49.351 A 2.936 2.936 0 0 1 151.968 49.348 Q 150.277 49.272 149.936 47.214 A 7.163 7.163 0 0 1 149.85 46.051 Q 149.85 45.076 150.075 44.176 L 155.475 18.676 L 144.675 18.676 L 139.575 42.751 L 142.725 42.751 A 47.172 47.172 0 0 1 141.19 46.75 Q 139.464 50.662 137.452 52.777 A 10.122 10.122 0 0 1 136.313 53.813 A 14.626 14.626 0 0 1 133.197 55.686 A 11.012 11.012 0 0 1 128.775 56.626 A 13.57 13.57 0 0 1 126.274 56.411 Q 124.899 56.152 123.834 55.583 A 6.251 6.251 0 0 1 122.063 54.188 A 8.556 8.556 0 0 1 119.978 49.247 A 11.275 11.275 0 0 1 119.925 48.151 Q 119.925 46.576 120.3 44.588 Q 120.675 42.601 121.088 40.726 Q 121.488 38.908 121.641 38.359 A 5.617 5.617 0 0 1 121.65 38.326 Q 122.25 35.701 122.775 33.151 A 35.024 35.024 0 0 0 123.052 31.652 Q 123.3 30.109 123.3 29.026 Q 123.3 25.288 120.722 25.203 A 3.685 3.685 0 0 0 120.6 25.201 A 3.858 3.858 0 0 0 118.145 26.094 A 6.117 6.117 0 0 0 117.15 27.113 Q 115.65 29.026 114.75 32.101 Z M 35.625 42.751 L 40.725 18.676 L 51.525 18.676 L 46.125 44.176 Q 45.9 45.301 45.9 46.276 Q 45.9 49.351 48.15 49.351 A 4.463 4.463 0 0 0 51.403 47.965 A 6.258 6.258 0 0 0 51.75 47.588 A 9.911 9.911 0 0 0 52.947 45.796 Q 53.644 44.481 54.15 42.751 L 59.25 18.676 L 70.05 18.676 L 64.65 44.176 A 9.004 9.004 0 0 0 64.365 46.025 A 10.436 10.436 0 0 0 64.35 46.576 Q 64.35 48.076 65.063 48.713 A 2.069 2.069 0 0 0 65.713 49.095 Q 66.381 49.351 67.425 49.351 A 4.471 4.471 0 0 0 70.562 48.075 A 6.369 6.369 0 0 0 71.063 47.551 Q 72.6 45.751 73.5 42.751 L 76.65 42.751 Q 74.116 50.149 70.487 53.198 A 10.532 10.532 0 0 1 69.788 53.738 A 17.44 17.44 0 0 1 66.461 55.608 A 12.58 12.58 0 0 1 61.575 56.626 A 9.385 9.385 0 0 1 59.427 56.393 A 6.409 6.409 0 0 1 56.438 54.826 Q 54.76 53.247 54.266 50.341 A 13.552 13.552 0 0 1 54.15 49.501 A 23.887 23.887 0 0 1 52.531 51.822 Q 51.626 52.958 50.691 53.784 A 10.008 10.008 0 0 1 48.788 55.126 A 12.729 12.729 0 0 1 45.228 56.415 A 11.346 11.346 0 0 1 43.05 56.626 Q 39.45 56.626 37.238 54.376 Q 35.435 52.543 35.101 49.216 A 15.933 15.933 0 0 1 35.025 47.626 Q 35.025 45.836 35.572 43.022 A 49.516 49.516 0 0 1 35.625 42.751 Z M 12.9 55.576 L 21.975 12.751 A 27.342 27.342 0 0 1 23.034 8.958 Q 24.57 4.749 27.263 2.776 Q 31.05 0.001 35.625 0.001 Q 39.15 0.001 41.813 2.288 A 7.484 7.484 0 0 1 43.947 5.207 A 7.745 7.745 0 0 1 44.475 8.101 A 22.636 22.636 0 0 1 44.426 9.635 Q 44.37 10.459 44.25 11.176 L 40.725 11.176 A 128.801 128.801 0 0 0 40.776 10.602 Q 40.868 9.546 40.875 9.204 A 2.553 2.553 0 0 0 40.875 9.151 A 2.796 2.796 0 0 0 40.761 8.328 A 2.146 2.146 0 0 0 40.05 7.276 A 2.969 2.969 0 0 0 38.48 6.626 A 3.909 3.909 0 0 0 38.025 6.601 A 3.833 3.833 0 0 0 36.229 7.064 Q 35.583 7.403 34.95 7.988 A 5.232 5.232 0 0 0 33.979 9.242 Q 33.272 10.477 32.85 12.397 A 18.959 18.959 0 0 0 32.775 12.751 L 31.5 18.676 L 36.975 18.676 L 36.45 21.676 L 30.9 21.676 L 22.275 62.176 A 28.749 28.749 0 0 1 21.26 65.909 Q 19.782 70.105 17.241 72.081 A 8.559 8.559 0 0 1 17.1 72.188 Q 13.425 74.926 8.85 74.926 Q 5.325 74.926 2.663 72.638 A 7.484 7.484 0 0 1 0.528 69.72 A 7.745 7.745 0 0 1 0 66.826 A 10.365 10.365 0 0 1 0.262 64.434 A 7.465 7.465 0 0 1 1.65 61.501 A 11.415 11.415 0 0 1 5.206 58.528 A 13.585 13.585 0 0 1 5.925 58.163 Q 7.689 57.332 10.231 56.45 A 85.133 85.133 0 0 1 12.9 55.576 Z M 70.65 56.176 L 78.6 18.676 L 89.4 18.676 L 88.425 23.326 Q 90.975 21.076 93.038 19.876 Q 95.1 18.676 97.5 18.676 A 5.617 5.617 0 0 1 99.19 18.917 A 4.426 4.426 0 0 1 101.288 20.326 A 5.893 5.893 0 0 1 102.667 23.933 A 7.531 7.531 0 0 1 102.675 24.301 Q 102.675 26.476 101.25 28.126 A 4.653 4.653 0 0 1 98.409 29.685 A 6.794 6.794 0 0 1 97.275 29.776 A 5.373 5.373 0 0 1 96.518 29.726 Q 95.485 29.579 95.063 28.988 A 3.82 3.82 0 0 1 94.693 28.33 Q 94.543 27.996 94.42 27.589 A 9.57 9.57 0 0 1 94.2 26.701 Q 94.018 25.911 93.836 25.466 A 2.787 2.787 0 0 0 93.75 25.276 A 0.769 0.769 0 0 0 93.195 24.852 A 1.283 1.283 0 0 0 92.925 24.826 A 6.487 6.487 0 0 0 91.726 24.931 Q 90.909 25.085 90.263 25.463 Q 89.175 26.101 87.45 27.676 L 81.45 56.176 L 70.65 56.176 Z M 11.4 62.401 L 12.375 58.051 Q 9.625 58.985 7.754 60.116 A 12.557 12.557 0 0 0 6.263 61.163 A 5.628 5.628 0 0 0 4.144 65.251 A 7.215 7.215 0 0 0 4.125 65.776 A 1.87 1.87 0 0 0 4.426 66.779 Q 4.646 67.131 5.025 67.463 Q 5.925 68.251 7.125 68.251 A 2.984 2.984 0 0 0 9.447 67.101 Q 10.413 65.979 11.057 63.763 A 20.635 20.635 0 0 0 11.4 62.401 Z M 153.9 62.401 L 154.35 60.226 A 27.282 27.282 0 0 0 151.668 61.363 Q 147 63.672 147 66.601 Q 147 67.576 147.675 68.326 A 2.211 2.211 0 0 0 148.95 69.023 A 3.251 3.251 0 0 0 149.55 69.076 A 2.1 2.1 0 0 0 150.652 68.746 Q 151.35 68.321 152.025 67.351 Q 152.841 66.178 153.414 64.313 A 21.579 21.579 0 0 0 153.9 62.401 Z"
      vector-effect="non-scaling-stroke"
      fill="black"
    />
  </g>
  <defs>
    <filter
      id="filter0_d"
      x="5.59244"
      y="15.088"
      width="125.067"
      height="62.24"
      filterUnits="userSpaceOnUse"
      color-interpolation-filters="sRGB"
    >
      <feFlood flood-opacity="0" result="BackgroundImageFix" />
      <feColorMatrix
        in="SourceAlpha"
        type="matrix"
        values="0 0 0 0 0 0 0 0 0 0 0 0 0 0 0 0 0 0 127 0"
      />
      <feOffset dy="4" />
      <feGaussianBlur stdDeviation="2" />
      <feColorMatrix
        type="matrix"
        values="0 0 0 0 0 0 0 0 0 0 0 0 0 0 0 0 0 0 0.25 0"
      />
      <feBlend
        mode="normal"
        in2="BackgroundImageFix"
        result="effect1_dropShadow"
      />
      <feBlend
        mode="normal"
        in="SourceGraphic"
        in2="effect1_dropShadow"
        result="shape"
      />
    </filter>
  </defs>
</svg>
